<svg width="136" height="19" viewBox="0 0 136 19" fill="none" xmlns="http://www.w3.org/2000/svg">
<path d="M0.517045 18V0.545454H7.50568C8.78977 0.545454 9.8608 0.735795 10.7188 1.11648C11.5767 1.49716 12.2216 2.02557 12.6534 2.7017C13.0852 3.37216 13.3011 4.14489 13.3011 5.01989C13.3011 5.7017 13.1648 6.30114 12.892 6.81818C12.6193 7.32955 12.2443 7.75 11.767 8.07955C11.2955 8.40341 10.7557 8.63352 10.1477 8.76989V8.94034C10.8125 8.96875 11.4347 9.15625 12.0142 9.50284C12.5994 9.84943 13.0739 10.3352 13.4375 10.9602C13.8011 11.5795 13.983 12.3182 13.983 13.1761C13.983 14.1023 13.7528 14.929 13.2926 15.6562C12.8381 16.3778 12.1648 16.9489 11.2727 17.3693C10.3807 17.7898 9.28125 18 7.97443 18H0.517045ZM4.20739 14.983H7.21591C8.24432 14.983 8.99432 14.7869 9.46591 14.3949C9.9375 13.9972 10.1733 13.4687 10.1733 12.8097C10.1733 12.3267 10.0568 11.9006 9.82386 11.5312C9.59091 11.1619 9.25852 10.8722 8.8267 10.6619C8.40057 10.4517 7.89205 10.3466 7.30114 10.3466H4.20739V14.983ZM4.20739 7.84943H6.94318C7.44886 7.84943 7.89773 7.76136 8.28977 7.58523C8.6875 7.40341 9 7.14773 9.22727 6.81818C9.46023 6.48864 9.5767 6.09375 9.5767 5.63352C9.5767 5.00284 9.35227 4.49432 8.90341 4.10795C8.46023 3.72159 7.82955 3.52841 7.01136 3.52841H4.20739V7.84943ZM16.3161 18V4.90909H19.8359V7.19318H19.9723C20.2109 6.38068 20.6115 5.76705 21.174 5.35227C21.7365 4.93182 22.3842 4.72159 23.1172 4.72159C23.299 4.72159 23.495 4.73295 23.7053 4.75568C23.9155 4.77841 24.1001 4.80966 24.2592 4.84943V8.07102C24.0888 8.01989 23.853 7.97443 23.5518 7.93466C23.2507 7.89489 22.9751 7.875 22.7251 7.875C22.1911 7.875 21.7138 7.99148 21.2933 8.22443C20.8786 8.4517 20.549 8.76989 20.3047 9.17898C20.0661 9.58807 19.9467 10.0597 19.9467 10.5938V18H16.3161ZM29.4943 18.2472C28.6591 18.2472 27.9148 18.1023 27.2614 17.8125C26.608 17.517 26.0909 17.0824 25.7102 16.5085C25.3352 15.929 25.1477 15.2074 25.1477 14.3438C25.1477 13.6165 25.2813 13.0057 25.5483 12.5114C25.8153 12.017 26.179 11.6193 26.6392 11.3182C27.0994 11.017 27.6222 10.7898 28.2074 10.6364C28.7983 10.483 29.4176 10.375 30.0653 10.3125C30.8267 10.233 31.4403 10.1591 31.9062 10.0909C32.3722 10.017 32.7102 9.90909 32.9205 9.76705C33.1307 9.625 33.2358 9.41477 33.2358 9.13636V9.08523C33.2358 8.54545 33.0653 8.12784 32.7244 7.83239C32.3892 7.53693 31.9119 7.3892 31.2926 7.3892C30.6392 7.3892 30.1193 7.53409 29.733 7.82386C29.3466 8.10795 29.0909 8.46591 28.9659 8.89773L25.608 8.625C25.7784 7.82955 26.1136 7.14205 26.6136 6.5625C27.1136 5.97727 27.7585 5.52841 28.5483 5.21591C29.3438 4.89773 30.2642 4.73864 31.3097 4.73864C32.0369 4.73864 32.733 4.82386 33.3977 4.99432C34.0682 5.16477 34.6619 5.42898 35.179 5.78693C35.7017 6.14489 36.1136 6.60511 36.4148 7.16761C36.7159 7.72443 36.8665 8.39205 36.8665 9.17045V18H33.4233V16.1847H33.321C33.1108 16.5938 32.8295 16.9545 32.4773 17.267C32.125 17.5739 31.7017 17.8153 31.2074 17.9915C30.7131 18.1619 30.142 18.2472 29.4943 18.2472ZM30.5341 15.7415C31.0682 15.7415 31.5398 15.6364 31.9489 15.4261C32.358 15.2102 32.679 14.9205 32.9119 14.5568C33.1449 14.1932 33.2614 13.7812 33.2614 13.321V11.9318C33.1477 12.0057 32.9915 12.0739 32.7926 12.1364C32.5994 12.1932 32.3807 12.2472 32.1364 12.2983C31.892 12.3437 31.6477 12.3864 31.4034 12.4261C31.1591 12.4602 30.9375 12.4915 30.7386 12.5199C30.3125 12.5824 29.9403 12.6818 29.6222 12.8182C29.304 12.9545 29.0568 13.1392 28.8807 13.3722C28.7045 13.5994 28.6165 13.8835 28.6165 14.2244C28.6165 14.7188 28.7955 15.0966 29.1534 15.358C29.517 15.6136 29.9773 15.7415 30.5341 15.7415ZM43.3139 10.4318V18H39.6832V4.90909H43.1435V7.21875H43.2969C43.5866 6.45739 44.0724 5.85511 44.7543 5.41193C45.4361 4.96307 46.2628 4.73864 47.2344 4.73864C48.1435 4.73864 48.9361 4.9375 49.6122 5.33523C50.2884 5.73295 50.8139 6.30114 51.1889 7.03977C51.5639 7.77273 51.7514 8.64773 51.7514 9.66477V18H48.1207V10.3125C48.1264 9.51136 47.9219 8.88636 47.5071 8.4375C47.0923 7.98295 46.5213 7.75568 45.794 7.75568C45.3054 7.75568 44.8736 7.8608 44.4986 8.07102C44.1293 8.28125 43.8395 8.58807 43.6293 8.99148C43.4247 9.3892 43.3196 9.86932 43.3139 10.4318ZM59.4368 18.2131C58.4425 18.2131 57.5419 17.9574 56.7351 17.446C55.9339 16.929 55.2976 16.1705 54.826 15.1705C54.3601 14.1648 54.1271 12.9318 54.1271 11.4716C54.1271 9.97159 54.3686 8.72443 54.8516 7.73011C55.3345 6.73011 55.9766 5.98295 56.7777 5.48864C57.5845 4.98864 58.468 4.73864 59.4283 4.73864C60.1612 4.73864 60.772 4.86364 61.2607 5.11364C61.755 5.35795 62.1527 5.66477 62.4538 6.03409C62.7607 6.39773 62.9936 6.75568 63.1527 7.10795H63.2635V0.545454H66.8857V18H63.3061V15.9034H63.1527C62.9822 16.267 62.7408 16.6278 62.4283 16.9858C62.1214 17.3381 61.7209 17.6307 61.2266 17.8636C60.7379 18.0966 60.1413 18.2131 59.4368 18.2131ZM60.5874 15.3239C61.1726 15.3239 61.6669 15.1648 62.0703 14.8466C62.4794 14.5227 62.7919 14.071 63.0078 13.4915C63.2294 12.9119 63.3402 12.233 63.3402 11.4545C63.3402 10.6761 63.2322 10 63.0163 9.42614C62.8004 8.85227 62.4879 8.40909 62.0788 8.09659C61.6697 7.78409 61.1726 7.62784 60.5874 7.62784C59.9908 7.62784 59.4879 7.78977 59.0788 8.11364C58.6697 8.4375 58.3601 8.88636 58.1499 9.46023C57.9396 10.0341 57.8345 10.6989 57.8345 11.4545C57.8345 12.2159 57.9396 12.8892 58.1499 13.4744C58.3658 14.054 58.6754 14.5085 59.0788 14.8381C59.4879 15.1619 59.9908 15.3239 60.5874 15.3239ZM84.5384 0.545454V18H81.3509L73.7571 7.0142H73.6293V18H69.9389V0.545454H73.1776L80.7116 11.5227H80.8651V0.545454H84.5384ZM91.2521 18.2472C90.4169 18.2472 89.6726 18.1023 89.0192 17.8125C88.3658 17.517 87.8487 17.0824 87.468 16.5085C87.093 15.929 86.9055 15.2074 86.9055 14.3438C86.9055 13.6165 87.0391 13.0057 87.3061 12.5114C87.5732 12.017 87.9368 11.6193 88.397 11.3182C88.8572 11.017 89.38 10.7898 89.9652 10.6364C90.5561 10.483 91.1754 10.375 91.8232 10.3125C92.5845 10.233 93.1982 10.1591 93.6641 10.0909C94.13 10.017 94.468 9.90909 94.6783 9.76705C94.8885 9.625 94.9936 9.41477 94.9936 9.13636V9.08523C94.9936 8.54545 94.8232 8.12784 94.4822 7.83239C94.147 7.53693 93.6697 7.3892 93.0504 7.3892C92.397 7.3892 91.8771 7.53409 91.4908 7.82386C91.1044 8.10795 90.8487 8.46591 90.7237 8.89773L87.3658 8.625C87.5362 7.82955 87.8714 7.14205 88.3714 6.5625C88.8714 5.97727 89.5163 5.52841 90.3061 5.21591C91.1016 4.89773 92.022 4.73864 93.0675 4.73864C93.7947 4.73864 94.4908 4.82386 95.1555 4.99432C95.826 5.16477 96.4197 5.42898 96.9368 5.78693C97.4595 6.14489 97.8714 6.60511 98.1726 7.16761C98.4737 7.72443 98.6243 8.39205 98.6243 9.17045V18H95.1811V16.1847H95.0788C94.8686 16.5938 94.5874 16.9545 94.2351 17.267C93.8828 17.5739 93.4595 17.8153 92.9652 17.9915C92.4709 18.1619 91.8999 18.2472 91.2521 18.2472ZM92.2919 15.7415C92.826 15.7415 93.2976 15.6364 93.7067 15.4261C94.1158 15.2102 94.4368 14.9205 94.6697 14.5568C94.9027 14.1932 95.0192 13.7812 95.0192 13.321V11.9318C94.9055 12.0057 94.7493 12.0739 94.5504 12.1364C94.3572 12.1932 94.1385 12.2472 93.8942 12.2983C93.6499 12.3437 93.4055 12.3864 93.1612 12.4261C92.9169 12.4602 92.6953 12.4915 92.4964 12.5199C92.0703 12.5824 91.6982 12.6818 91.38 12.8182C91.0618 12.9545 90.8146 13.1392 90.6385 13.3722C90.4624 13.5994 90.3743 13.8835 90.3743 14.2244C90.3743 14.7188 90.5533 15.0966 90.9112 15.358C91.2749 15.6136 91.7351 15.7415 92.2919 15.7415ZM101.441 18V4.90909H104.901V7.21875H105.055C105.327 6.4517 105.782 5.84659 106.418 5.40341C107.055 4.96023 107.816 4.73864 108.702 4.73864C109.6 4.73864 110.364 4.96307 110.995 5.41193C111.626 5.85511 112.046 6.45739 112.256 7.21875H112.393C112.66 6.46875 113.143 5.86932 113.842 5.42045C114.546 4.96591 115.379 4.73864 116.339 4.73864C117.56 4.73864 118.552 5.12784 119.313 5.90625C120.08 6.67898 120.464 7.77557 120.464 9.19602V18H116.842V9.91193C116.842 9.18466 116.648 8.6392 116.262 8.27557C115.876 7.91193 115.393 7.73011 114.813 7.73011C114.154 7.73011 113.64 7.94034 113.271 8.3608C112.901 8.77557 112.717 9.32386 112.717 10.0057V18H109.197V9.83523C109.197 9.19318 109.012 8.68182 108.643 8.30114C108.279 7.92045 107.799 7.73011 107.202 7.73011C106.799 7.73011 106.435 7.83239 106.112 8.03693C105.793 8.2358 105.54 8.51705 105.353 8.88068C105.165 9.23864 105.072 9.65909 105.072 10.142V18H101.441ZM129.298 18.2557C127.951 18.2557 126.792 17.983 125.82 17.4375C124.854 16.8864 124.11 16.108 123.587 15.1023C123.065 14.0909 122.803 12.8949 122.803 11.5142C122.803 10.1676 123.065 8.9858 123.587 7.96875C124.11 6.9517 124.846 6.15909 125.795 5.59091C126.749 5.02273 127.869 4.73864 129.153 4.73864C130.016 4.73864 130.82 4.87784 131.565 5.15625C132.315 5.42898 132.968 5.84091 133.525 6.39205C134.087 6.94318 134.525 7.63636 134.837 8.47159C135.15 9.30114 135.306 10.2727 135.306 11.3864V12.3835H124.252V10.1335H131.888C131.888 9.6108 131.775 9.14773 131.548 8.74432C131.32 8.34091 131.005 8.02557 130.602 7.7983C130.204 7.56534 129.741 7.44886 129.212 7.44886C128.661 7.44886 128.173 7.5767 127.746 7.83239C127.326 8.08239 126.996 8.42045 126.758 8.84659C126.519 9.26705 126.397 9.7358 126.391 10.2528V12.392C126.391 13.0398 126.511 13.5994 126.749 14.071C126.994 14.5426 127.337 14.9062 127.781 15.1619C128.224 15.4176 128.749 15.5455 129.357 15.5455C129.761 15.5455 130.13 15.4886 130.465 15.375C130.8 15.2614 131.087 15.0909 131.326 14.8636C131.565 14.6364 131.746 14.358 131.871 14.0284L135.229 14.25C135.059 15.0568 134.71 15.7614 134.181 16.3636C133.658 16.9602 132.982 17.4261 132.153 17.7614C131.329 18.0909 130.377 18.2557 129.298 18.2557Z" fill="white"/>
</svg>
