<?xml version="1.0" standalone="no"?>
<!DOCTYPE svg PUBLIC "-//W3C//DTD SVG 20010904//EN"
 "http://www.w3.org/TR/2001/REC-SVG-20010904/DTD/svg10.dtd">
<svg version="1.0" xmlns="http://www.w3.org/2000/svg"
 width="1000.000000pt" height="622.000000pt" viewBox="0 0 1000.000000 622.000000"
 preserveAspectRatio="xMidYMid meet">

<g transform="translate(0.000000,622.000000) scale(0.100000,-0.100000)"
fill="#000000" stroke="none">
<path d="M6520 6128 l0 -93 -238 -28 c-275 -33 -737 -91 -1137 -142 -154 -19
-293 -41 -309 -47 -76 -30 -120 -97 -136 -205 -15 -105 -13 -387 4 -426 17
-41 76 -93 115 -102 17 -4 31 -10 31 -13 0 -4 -20 -15 -45 -25 -57 -24 -128
-102 -150 -165 -19 -55 -29 -209 -45 -712 -6 -190 -13 -378 -17 -417 l-6 -73
-168 0 c-145 0 -175 3 -219 20 -28 11 -58 20 -66 20 -9 0 -27 9 -41 20 -14 11
-38 20 -54 20 -36 0 -65 48 -68 113 -2 46 -1 47 29 47 39 0 70 31 70 71 0 39
-29 170 -42 186 -10 12 -1 60 14 80 6 7 10 27 10 46 0 31 2 33 29 29 38 -6 59
13 59 52 0 67 -58 76 -120 20 l-39 -36 -27 21 c-15 12 -34 21 -42 21 -13 0
-12 -3 2 -19 11 -12 14 -21 7 -26 -10 -6 -15 1 -12 18 0 4 -3 7 -9 7 -14 0
-12 -13 4 -36 13 -17 12 -21 -1 -36 -24 -27 -36 -22 -61 22 -12 22 -27 40 -31
40 -14 0 -60 -59 -67 -86 -7 -27 41 -194 56 -194 5 0 14 -9 20 -20 13 -24 19
-101 8 -94 -5 3 -8 -11 -8 -30 0 -27 3 -34 15 -30 8 4 15 10 15 16 0 5 4 6 10
3 5 -3 10 -18 10 -32 0 -15 14 -41 34 -64 27 -29 34 -44 30 -66 -8 -46 -11
-51 -41 -58 -19 -4 -33 -17 -44 -40 l-16 -34 71 -4 71 -3 -82 -2 c-53 -1 -84
2 -89 10 -4 7 -3 8 4 4 7 -4 12 -2 12 3 0 16 -22 13 -47 -4 -29 -21 -36 -5
-20 43 13 36 12 40 -2 35 -12 -3 -12 -2 2 7 9 6 22 8 27 5 6 -3 10 5 10 19 0
19 -5 26 -19 26 -11 0 -23 -5 -26 -11 -4 -5 -18 -14 -31 -19 -13 -5 -24 -15
-24 -21 0 -8 6 -7 18 2 15 12 16 12 4 -2 -10 -13 -9 -24 3 -59 8 -23 15 -48
14 -54 0 -6 -11 17 -23 52 -13 35 -26 65 -29 68 -6 6 -171 -61 -213 -87 -19
-11 -32 -25 -29 -29 3 -5 1 -11 -4 -15 -11 -6 -3 -35 10 -35 4 0 6 7 2 16 -5
14 -3 15 16 4 13 -6 25 -9 29 -6 3 3 -1 6 -8 6 -9 0 -8 5 5 14 18 13 18 13 -1
24 -14 9 -15 11 -4 12 22 0 60 -29 60 -46 0 -8 4 -13 8 -10 5 3 9 -1 9 -9 0
-8 -3 -15 -7 -15 -3 0 -4 -32 -2 -71 2 -54 -1 -75 -12 -88 -11 -12 -17 -44
-20 -95 -2 -42 -7 -80 -10 -83 -3 -4 -6 4 -6 16 0 12 -4 19 -10 16 -6 -4 -8
-11 -5 -16 4 -5 0 -9 -8 -9 -11 0 -13 7 -9 22 4 17 2 20 -11 15 -10 -4 -17 -3
-17 2 0 5 -9 11 -20 14 -14 3 -18 10 -14 22 7 16 -4 16 -68 -2 -13 -3 -16 0
-12 11 3 9 11 13 17 9 6 -4 7 -1 2 7 -4 7 -2 16 6 21 12 8 11 11 -4 20 -9 5
-17 18 -17 27 0 13 2 14 9 4 7 -11 9 -10 14 3 4 9 3 14 -2 10 -5 -3 -14 7 -20
22 -8 21 -10 22 -7 6 2 -13 0 -26 -6 -29 -5 -3 -8 -22 -5 -43 2 -20 2 -27 -2
-16 -4 15 -7 9 -12 -20 -5 -28 -6 -20 -3 25 7 116 50 220 103 246 12 7 19 14
14 16 -4 3 -75 1 -157 -4 -130 -8 -156 -12 -200 -35 -103 -51 -400 -265 -703
-504 -89 -71 -176 -138 -195 -149 l-33 -21 495 5 c272 3 534 6 583 6 l87 0 -7
162 c-6 156 -6 161 13 154 33 -13 166 -46 186 -46 17 0 19 -5 13 -32 -14 -67
-60 -198 -65 -184 -4 11 -9 8 -23 -10 -17 -23 -17 -24 3 -24 11 0 20 -7 20
-15 0 -33 229 -12 390 36 36 10 70 22 77 26 6 5 39 71 73 148 34 77 63 141 64
142 1 1 29 -2 63 -7 85 -12 190 4 271 39 71 32 85 32 59 3 -36 -39 -70 -203
-46 -218 11 -6 46 35 41 49 -3 11 36 9 43 -3 3 -5 13 -6 23 -3 15 6 15 5 3
-10 -12 -15 -11 -17 3 -17 19 0 19 -3 7 -50 -5 -19 -12 -47 -15 -61 -3 -14
-17 -31 -31 -37 -33 -15 -88 -15 -102 -1 -9 9 -23 0 -57 -35 l-45 -46 47 -1
c26 0 57 -2 69 -3 30 -3 83 20 83 36 0 9 3 9 11 -2 9 -12 10 -12 6 5 -3 17 2
20 35 23 l40 3 -6 -53 c-3 -29 -10 -183 -16 -343 -5 -159 -13 -336 -16 -391
l-6 -101 -41 -13 c-61 -18 -129 -54 -164 -87 l-31 -29 -6 45 c-3 26 -8 133
-12 238 -6 174 -5 193 9 193 9 0 32 16 52 35 28 29 35 43 35 75 0 45 -18 60
-73 60 l-34 0 -7 61 c-3 34 -6 96 -6 138 0 112 -10 117 -59 27 l-42 -76 -119
0 -119 0 16 38 c8 20 31 67 49 104 19 37 34 70 34 72 0 3 -12 3 -27 1 -16 -2
-32 -4 -36 -4 -5 -1 -5 -6 -1 -13 4 -7 3 -8 -5 -4 -13 8 -83 -33 -116 -69 -29
-30 -176 -82 -299 -104 -115 -22 -94 -26 33 -7 l84 12 -7 -125 c-3 -69 -7
-358 -8 -641 -1 -283 -3 -489 -5 -458 -4 59 -26 95 -43 68 -6 -10 -9 -8 -13 6
-3 13 -5 14 -6 4 -1 -12 -11 -15 -41 -12 -33 3 -45 0 -60 -18 -15 -17 -27 -21
-50 -18 -25 4 -30 2 -25 -11 4 -9 -5 -5 -20 9 l-26 25 10 -30 c10 -28 10 -29
-4 -11 -8 11 -15 26 -15 34 0 12 -39 13 -239 11 -230 -4 -238 -5 -231 -23 11
-32 0 -62 -32 -81 -23 -13 -32 -15 -38 -5 -6 9 -9 9 -13 -1 -7 -21 -67 41 -71
74 -1 14 -8 32 -14 40 -7 7 -19 33 -27 58 -40 112 -96 169 -168 169 -25 0 -43
7 -54 20 -17 19 -30 20 -486 20 l-468 0 -24 -26 c-22 -24 -25 -36 -41 -159 -1
-11 -3 -29 -3 -40 -1 -17 -3 -17 -11 -5 -5 8 -10 10 -10 5 0 -6 -12 -11 -27
-12 -26 -2 -27 -1 -6 7 17 7 23 17 22 37 l-2 28 -4 -28 c-4 -26 -7 -27 -58
-27 -39 0 -53 -3 -50 -12 11 -29 -12 -37 -110 -40 -98 -3 -100 -4 -103 -27 -6
-40 19 -140 43 -176 l23 -33 -24 -138 c-14 -77 -36 -197 -49 -269 -33 -173
-51 -161 202 -139 l63 6 19 66 c11 37 39 137 61 222 l42 155 76 -5 76 -5 23
-110 c69 -332 231 -607 408 -692 l50 -24 -649 6 c-357 3 -751 5 -875 5 -225 0
-226 0 -236 23 -8 17 -18 22 -45 22 -27 0 -37 -5 -45 -22 -9 -22 -16 -23 -102
-23 l-93 0 0 -215 0 -215 5000 0 5000 0 0 217 0 216 -765 -7 c-421 -4 -765 -5
-765 -2 0 3 19 14 43 24 59 26 157 135 211 234 75 139 146 389 146 519 0 43
14 58 29 32 8 -14 9 -11 5 15 -5 23 -3 32 7 32 8 0 67 -18 131 -40 139 -47
414 -123 427 -118 10 3 -59 211 -168 503 -67 180 -165 474 -228 685 l-29 95
-54 7 c-101 12 -763 77 -900 88 -181 14 -198 18 -203 38 -4 16 -5 16 -6 0 -1
-21 2 -21 -154 -8 -210 18 -207 17 -207 50 0 53 -7 60 -60 54 -26 -3 -85 2
-130 10 -97 19 -113 13 -108 -43 3 -32 7 -36 47 -48 61 -17 166 -27 188 -18
48 21 57 13 11 -11 -28 -14 -44 -15 -160 -3 l-128 13 0 107 c0 105 1 108 28
130 26 21 33 21 187 16 88 -4 219 -13 290 -21 72 -8 164 -17 205 -20 73 -6 74
-6 50 11 -14 10 -52 43 -84 73 -33 30 -56 49 -52 42 4 -7 4 -21 1 -32 -6 -20
-8 -19 -43 9 -20 16 -114 96 -208 179 -115 101 -175 161 -184 183 -8 19 -26
50 -40 69 -15 19 -57 98 -94 175 l-67 140 10 435 c24 1031 24 1023 7 1083 -28
96 -94 156 -185 167 l-56 7 50 13 c67 18 135 86 160 161 16 45 19 87 19 249 1
184 0 198 -22 242 -29 59 -80 104 -134 119 -34 9 -74 8 -198 -5 -85 -10 -170
-20 -187 -23 l-33 -5 0 91 0 91 -40 0 -40 0 0 -92z m338 -425 c-3 -30 -28 -49
-52 -40 -22 9 -21 63 1 76 27 15 55 -5 51 -36z m-388 -93 c0 -5 7 -10 15 -10
18 0 20 -27 3 -33 -10 -3 -10 -8 1 -21 19 -23 16 -74 -5 -97 -20 -23 -57 -25
-74 -4 -16 19 -26 95 -12 95 6 0 12 -3 14 -7 2 -5 13 2 24 14 20 20 21 22 3
20 -10 -1 -19 -6 -19 -12 0 -5 -4 -3 -10 5 -10 17 5 40 26 40 8 0 14 5 14 10
0 6 5 10 10 10 6 0 10 -4 10 -10z m280 -45 c11 -29 -4 -81 -27 -89 -45 -18
-71 25 -48 81 18 42 60 47 75 8z m-1506 -26 c22 -26 26 -40 26 -92 -1 -127
-74 -208 -151 -167 -70 38 -62 222 12 274 38 26 83 21 113 -15z m910 -1 c23
-32 20 -106 -4 -146 -11 -18 -35 -39 -53 -46 -17 -8 -169 -28 -336 -45 -345
-36 -330 -38 -338 46 -6 59 15 114 52 139 19 12 92 24 278 44 139 16 282 28
319 29 58 1 69 -2 82 -21z m-1150 -21 c14 -17 17 -31 11 -62 -7 -45 -7 -44 1
-101 13 -89 -64 -153 -136 -114 -25 13 -44 74 -34 108 4 15 8 48 9 74 0 51 25
94 66 115 29 15 58 8 83 -20z m413 -458 c-3 -23 -10 -45 -16 -48 -6 -4 -109
-17 -228 -29 -255 -26 -273 -33 -319 -127 -31 -64 -33 -96 -53 -735 -6 -184
-14 -359 -17 -387 l-5 -53 -45 0 -44 0 0 73 c0 66 5 212 29 783 11 257 17 272
163 404 55 51 114 98 132 105 17 7 92 21 166 30 74 9 144 17 155 19 11 2 35 4
54 5 l34 1 -6 -41z m1480 -71 c44 -41 47 -74 34 -410 -6 -172 -14 -416 -18
-541 -4 -159 -10 -226 -17 -223 -6 3 -49 21 -96 40 -46 19 -91 44 -100 55 -26
34 -61 41 -142 28 -60 -10 -75 -16 -83 -35 -7 -16 -28 -29 -70 -42 -141 -45
-184 -63 -178 -74 19 -30 12 -41 -27 -40 -22 0 -40 -3 -40 -8 0 -11 -25 -38
-35 -38 -4 0 3 12 15 28 12 15 25 27 29 27 4 0 15 8 25 18 10 9 13 17 7 17 -6
0 -28 -17 -50 -39 -39 -39 -107 -190 -97 -214 2 -7 5 -4 5 6 1 9 6 17 12 17 7
0 8 -7 4 -17 -4 -10 -8 -24 -9 -32 -2 -8 -11 -18 -22 -22 -13 -5 -14 -8 -4 -8
13 -1 13 -2 0 -11 -13 -8 -13 -10 2 -10 12 0 23 -17 35 -50 10 -27 21 -50 25
-50 14 0 9 22 -13 56 -11 19 -17 34 -14 34 4 0 1 8 -6 17 -11 13 -11 15 -1 9
9 -5 13 -3 11 5 -3 26 1 39 12 39 8 0 10 -16 6 -50 -5 -43 -3 -52 13 -63 11
-6 20 -19 20 -27 1 -12 4 -11 15 4 20 27 27 16 19 -33 -5 -31 -11 -41 -25 -41
-13 0 -17 5 -13 18 5 14 3 14 -10 -2 -15 -18 -16 -19 -16 -2 0 14 -5 17 -25
12 -18 -5 -24 -3 -23 6 2 7 -3 12 -9 10 -7 -1 -13 6 -13 15 0 16 -2 16 -11 3
-8 -11 -9 -8 -4 15 7 31 23 47 37 39 4 -3 8 -1 8 5 0 16 -20 23 -34 12 -7 -6
-18 -36 -25 -67 -15 -65 -11 -71 82 -124 61 -34 72 -55 45 -84 -20 -22 -24
-46 -8 -46 14 0 13 -27 -2 -36 -7 -4 -8 -3 -4 4 4 7 3 12 -3 12 -6 0 -22 -37
-36 -83 -29 -97 -46 -124 -89 -143 -27 -12 -28 -13 -8 -14 59 -1 127 65 163
159 13 34 29 61 35 61 16 0 24 24 24 71 0 29 -4 38 -12 34 -7 -4 -5 0 4 8 10
7 22 26 27 40 18 46 39 23 48 -51 9 -76 8 -444 -2 -509 l-6 -43 -74 0 c-49 0
-75 4 -78 13 -3 7 -6 5 -6 -5 -1 -16 9 -18 79 -18 44 0 80 -2 80 -5 0 -2 -11
-73 -25 -157 -29 -178 -45 -351 -45 -495 l0 -103 -57 -2 -58 -2 58 -3 57 -4 2
-37 c1 -20 3 -59 4 -87 1 -27 5 -93 8 -145 l7 -96 -613 3 c-337 2 -636 6 -664
9 -38 4 -58 12 -75 30 -24 26 -24 28 -22 222 0 109 6 359 12 557 6 198 18 599
26 890 8 292 17 573 20 625 3 52 10 269 15 483 8 378 9 389 32 434 36 74 58
84 205 99 204 21 188 25 190 -47 3 -69 30 -127 72 -152 25 -14 50 -14 316 9
569 48 627 56 650 94 3 5 22 10 40 10 30 0 37 5 57 43 18 33 23 59 23 118 l0
77 145 12 c80 6 152 13 160 15 29 7 74 -6 97 -27z m-806 -93 c-1 -33 -4 -61
-5 -62 -1 -2 -413 -39 -548 -49 -64 -5 -92 -3 -103 6 -19 16 -21 110 -2 111 6
0 149 13 317 29 168 15 314 27 325 26 18 -1 20 -7 16 -61z m174 57 c6 -4 16
-18 23 -31 12 -21 11 -27 -6 -50 -28 -38 -66 -49 -92 -26 -29 26 -26 69 6 94
27 22 52 26 69 13z m-2235 -619 c0 -5 -16 -9 -36 -11 -19 -1 -45 -7 -56 -13
-14 -8 -18 -8 -14 0 12 19 106 40 106 24z m-180 -67 c0 -2 -8 -10 -17 -17 -16
-13 -17 -12 -4 4 13 16 21 21 21 13z m170 -45 c0 -6 -4 -13 -10 -16 -16 -10
-11 -35 8 -36 16 -1 16 -2 0 -6 -24 -6 -23 -19 2 -26 12 -3 20 -14 20 -26 0
-21 -7 -25 -48 -23 -12 1 -20 -3 -17 -8 3 -5 -2 -18 -12 -28 -10 -10 -23 -27
-28 -36 -9 -15 -14 -16 -38 -5 -31 14 -35 24 -46 127 -5 55 -4 72 5 68 6 -2
36 1 65 9 67 16 99 18 99 6z m-5 -191 c4 -6 1 -9 -6 -8 -6 2 -14 -3 -17 -11
-3 -10 0 -12 12 -8 9 4 16 2 16 -3 0 -13 -27 -13 -35 0 -8 14 1 40 14 40 5 0
13 -5 16 -10z m-58 -126 c-3 -3 -12 -4 -19 -1 -8 3 -5 6 6 6 11 1 17 -2 13 -5z
m2412 -202 c7 -20 14 -91 16 -157 2 -66 1 -105 -2 -87 -4 31 -5 33 -18 15 -14
-17 -14 -17 -15 2 0 11 7 34 16 50 12 22 14 45 10 87 -6 64 -34 141 -47 132
-5 -3 -6 3 -2 13 6 17 5 16 -16 -1 -15 -14 -25 -16 -32 -9 -16 16 -1 37 15 24
18 -15 28 -1 15 18 -6 9 2 1 18 -17 16 -18 35 -49 42 -70z m-112 56 c2 -17 0
-19 -7 -8 -5 8 -6 18 -4 22 8 12 10 10 11 -14z m76 -64 c-2 -7 -11 -10 -19 -7
-17 6 -17 10 -1 27 14 16 28 1 20 -20z m-2690 -27 c5 -12 3 -16 -5 -11 -8 5
-9 2 -4 -11 6 -15 4 -16 -10 -5 -10 9 -9 2 6 -23 22 -37 39 -53 21 -19 -6 12
-6 23 1 33 8 11 9 11 5 -3 -3 -9 -2 -18 4 -20 5 -2 12 -21 16 -43 3 -22 12
-44 19 -50 16 -13 22 -57 10 -71 -7 -7 -19 -2 -39 19 -24 24 -26 31 -15 45 8
10 9 13 1 9 -15 -9 -73 76 -63 93 5 9 9 9 14 1 4 -6 5 -15 2 -19 -2 -4 4 -19
14 -32 19 -25 19 -25 4 19 -16 48 -39 77 -49 61 -3 -5 -3 -14 0 -20 3 -5 4
-10 1 -10 -3 0 -10 10 -17 21 -9 17 -8 20 2 14 8 -6 10 -4 5 4 -5 7 -15 10
-25 7 -12 -5 -11 -2 3 9 15 11 16 15 5 15 -8 0 -20 -5 -27 -12 -6 -6 -14 -9
-17 -6 -3 3 9 12 27 21 27 13 33 13 42 1 8 -9 16 -11 26 -4 11 7 11 10 2 10
-10 0 -10 3 0 14 11 11 15 11 24 -3 6 -9 14 -24 17 -34z m94 31 c-3 -8 -6 -5
-6 6 -1 11 2 17 5 13 3 -3 4 -12 1 -19z m2420 -30 c0 -18 -2 -25 -4 -15 -3 9
-9 14 -14 11 -6 -3 -5 3 3 15 7 12 13 21 14 21 0 0 1 -15 1 -32z m-2078 -18
c0 -10 -3 -8 -9 5 -12 27 -12 43 0 25 5 -8 9 -22 9 -30z m2046 -19 c4 -15 3
-21 -3 -17 -5 3 -12 17 -15 32 -5 30 8 20 18 -15z m225 24 c0 -8 -2 -15 -4
-15 -2 0 -6 7 -10 15 -3 8 -1 15 4 15 6 0 10 -7 10 -15z m-2191 -42 c1 -7 -3
-13 -9 -13 -5 0 -10 15 -9 33 0 27 2 29 9 12 5 -11 9 -26 9 -32z m-122 21 c-3
-3 -12 -4 -19 -1 -8 3 -5 6 6 6 11 1 17 -2 13 -5z m2058 -15 c-5 -14 -3 -19 3
-15 6 3 13 2 17 -4 9 -15 23 -12 28 5 4 11 4 10 3 -2 -1 -13 -10 -18 -34 -17
-17 0 -32 -4 -32 -9 0 -6 -2 -8 -5 -5 -3 2 0 19 6 36 12 35 24 45 14 11z
m-2605 7 c0 -2 -7 -6 -15 -10 -8 -3 -15 -1 -15 4 0 6 7 10 15 10 8 0 15 -2 15
-4z m2869 -25 c0 -10 -2 -11 -6 -3 -2 6 -9 10 -14 6 -5 -3 -9 2 -9 10 0 10 6
13 15 10 8 -4 15 -14 14 -23z m301 -95 c14 -2 -10 -4 -52 -5 -43 0 -78 2 -78
7 0 6 70 6 130 -2z m-2600 -106 c15 -5 -27 -7 -102 -6 -70 0 -128 4 -128 9 0
9 198 7 230 -3z m-523 -57 c-3 -10 -5 -4 -5 12 0 17 2 24 5 18 2 -7 2 -21 0
-30z m-177 -43 c0 -5 -5 -10 -11 -10 -5 0 -7 5 -4 10 3 6 8 10 11 10 2 0 4 -4
4 -10z m130 -80 c11 -8 7 -9 -15 -4 -37 8 -45 14 -19 14 10 0 26 -5 34 -10z
m916 -38 c-8 -9 -19 -13 -22 -9 -10 9 16 38 28 31 6 -4 4 -13 -6 -22z m2499
-359 c-6 -105 -9 -123 -24 -123 -43 1 -46 10 -32 152 13 142 37 306 49 335 10
25 15 -218 7 -364z m-723 319 c-7 -2 -10 -7 -8 -10 2 -4 -2 -13 -10 -20 -12
-11 -15 -10 -20 3 -8 21 14 45 34 38 10 -4 12 -8 4 -11z m-1435 -334 c-12
-167 -40 -1346 -33 -1372 9 -38 62 -93 102 -106 23 -8 34 -17 30 -25 -3 -8 0
-16 7 -19 7 -3 -27 -4 -76 -3 -79 3 -90 6 -116 31 -52 50 -65 116 -58 300 4
89 11 377 17 641 6 264 13 517 16 563 l6 82 55 0 56 0 -6 -92z m2583 -207 c0
-24 -15 -35 -36 -27 -12 5 -12 9 -2 26 16 25 38 26 38 1z m-65 -20 c-6 -5 -25
10 -25 20 0 5 6 4 14 -3 8 -7 12 -15 11 -17z m843 -223 c26 -26 14 -39 -35
-36 -41 3 -48 6 -51 26 -3 20 1 22 35 22 22 0 44 -5 51 -12z m-1871 -555 c-1
-59 -3 -13 -3 102 0 116 2 164 3 108 2 -56 2 -151 0 -210z m-2274 -14 c10
-122 15 -224 12 -227 -3 -3 -5 11 -5 32 0 47 -15 75 -37 72 -10 -2 -21 2 -25
7 -4 6 -10 -2 -13 -19 -4 -16 -11 -40 -16 -54 -9 -24 -9 -23 -4 4 17 85 55
346 55 374 0 17 4 32 8 32 4 0 16 -100 25 -221z m2633 39 c8 -51 14 -137 14
-190 0 -93 -1 -99 -27 -127 -16 -16 -38 -32 -51 -36 -21 -6 -22 -4 -17 32 2
21 12 99 20 173 18 150 35 253 42 246 3 -2 11 -46 19 -98z m-4266 -73 c7 -8
27 -15 45 -15 26 0 34 -5 39 -24 3 -13 1 -38 -5 -56 -10 -27 -15 -31 -35 -26
-17 5 -23 2 -22 -6 2 -10 -79 -14 -393 -16 -344 -2 -398 0 -409 13 -18 21 -24
98 -11 124 12 21 13 21 395 21 329 0 385 -2 396 -15z m2097 -297 c-3 -8 -6 -5
-6 6 -1 11 2 17 5 13 3 -3 4 -12 1 -19z m-867 -206 c-5 -29 -16 -65 -24 -80
-25 -47 -28 -118 -17 -299 10 -151 38 -362 57 -430 l6 -23 -468 0 -469 0 45
26 c86 49 152 129 225 273 65 129 124 343 137 496 3 34 -19 31 285 34 l192 1
16 31 c22 42 27 32 15 -29z m234 23 c5 -21 12 -25 44 -25 l38 0 13 -152 c16
-185 30 -258 72 -369 60 -158 68 -184 75 -246 l7 -63 -180 0 c-99 0 -182 2
-185 5 -2 3 6 51 19 107 50 220 58 338 42 623 -2 28 32 145 41 145 4 0 11 -11
14 -25z m1688 -277 c-2 -150 -8 -290 -13 -311 -6 -21 -25 -55 -44 -75 l-33
-37 -366 -5 c-201 -3 -366 -3 -366 0 0 2 18 22 39 45 55 56 107 152 147 270
32 97 64 248 64 305 0 60 0 60 154 61 77 0 150 4 161 9 11 5 74 9 140 9 l120
1 -3 -272z m372 -30 c-7 -329 -10 -343 -69 -398 -25 -24 -34 -25 -161 -28
-125 -3 -157 3 -124 23 6 4 20 25 32 48 21 40 23 58 29 347 3 168 7 306 8 308
0 1 66 2 146 2 l145 0 -6 -302z m364 296 c40 -8 66 -67 47 -110 -23 -55 -25
-100 -10 -229 19 -165 41 -292 70 -411 l22 -94 -910 0 c-501 0 -907 4 -901 8
5 5 28 16 52 25 38 15 108 17 635 17 681 0 633 -7 683 97 l29 58 6 305 c4 168
8 313 8 323 1 15 14 17 120 17 65 0 132 -3 149 -6z m482 -11 c1 -77 24 -358
35 -435 14 -91 71 -332 90 -380 7 -17 -5 -18 -173 -18 l-179 0 17 77 c35 151
44 239 44 428 1 152 -3 201 -17 247 -28 91 -31 88 83 88 55 0 100 -3 100 -7z
m833 -96 c4 -48 20 -138 36 -200 67 -265 183 -448 325 -513 l51 -23 -483 0
-484 -1 46 50 c85 95 102 180 112 563 l6 217 192 -2 191 -3 8 -88z m-7268
-717 c8 -13 -20 -24 -41 -16 -20 8 -9 26 16 26 10 0 22 -5 25 -10z m6110 -156
c14 -9 25 -22 25 -29 0 -7 11 -16 24 -19 16 -4 30 -21 44 -53 l21 -48 -52 -7
c-29 -3 -139 -6 -244 -7 -165 -1 -193 1 -193 14 0 8 8 15 18 15 49 1 166 21
178 31 7 6 18 8 23 4 7 -4 8 1 4 11 -5 13 -3 15 7 9 19 -12 60 -15 60 -4 0 5
7 9 15 9 8 0 15 5 15 11 0 5 5 7 10 4 6 -3 10 -1 10 4 0 6 6 11 14 11 29 0 25
18 -7 39 -22 14 -27 21 -14 21 10 0 29 -7 42 -16z m-2761 -15 c-7 -12 -44 -12
-44 0 0 5 6 11 13 14 17 6 38 -3 31 -14z m2876 12 c0 -5 -9 -11 -19 -14 -14
-3 -18 -1 -14 9 6 15 33 19 33 5z m-2776 -10 c3 -5 -4 -11 -17 -15 -33 -9 -37
-7 -31 9 7 16 39 20 48 6z m2640 -10 c8 -12 -20 -22 -41 -14 -11 4 -14 3 -9
-5 4 -7 2 -12 -3 -12 -13 0 -13 3 -5 24 7 17 49 22 58 7z m-2691 -18 c18 -10
39 -25 47 -33 8 -9 28 -23 43 -33 15 -10 25 -22 22 -27 -3 -4 1 -11 7 -13 7
-3 -36 -6 -97 -6 l-110 -1 3 60 c4 59 4 60 30 54 21 -4 24 -3 12 5 -26 18 8
13 43 -6z m2620 -17 c6 -16 -19 -30 -28 -16 -7 11 2 30 15 30 4 0 10 -6 13
-14z m-2538 -6 c3 -5 2 -10 -4 -10 -5 0 -13 5 -16 10 -3 6 -2 10 4 10 5 0 13
-4 16 -10z m-2511 -35 c-7 -18 12 -20 20 -2 3 6 3 1 -1 -13 -5 -23 -5 -24 12
-10 17 14 18 13 12 -2 -4 -12 -2 -15 9 -11 16 6 19 -13 3 -23 -14 -9 -74 51
-65 65 10 16 16 13 10 -4z m110 -42 c11 -13 16 -23 13 -23 -10 0 -37 31 -37
42 0 6 1 9 3 7 1 -2 11 -14 21 -26z m-104 -43 c0 -5 -4 -10 -10 -10 -5 0 -10
5 -10 10 0 6 5 10 10 10 6 0 10 -4 10 -10z m73 -2 c4 -10 8 -9 16 2 7 9 11 10
11 3 0 -21 -21 -26 -38 -9 -9 9 -11 16 -5 16 6 0 14 -6 16 -12z m50 -49 c-8
-8 -13 -7 -18 2 -6 8 -4 10 5 4 10 -6 12 -4 6 11 -6 15 -5 17 5 7 9 -10 10
-16 2 -24z"/>
<path d="M6436 5516 c-20 -31 -20 -40 -1 -56 12 -10 18 -10 30 0 19 16 19 54
1 69 -10 9 -17 6 -30 -13z"/>
<path d="M6694 5545 c-8 -21 2 -45 20 -45 17 0 28 24 20 45 -4 8 -13 15 -20
15 -8 0 -17 -7 -20 -15z"/>
<path d="M5141 5484 c-26 -33 -29 -115 -5 -138 18 -19 20 -19 44 -6 22 12 40
61 40 109 0 63 -42 82 -79 35z"/>
<path d="M4928 5477 c-35 -28 -27 -74 11 -62 15 4 21 15 21 35 0 34 -11 44
-32 27z"/>
<path d="M4912 5351 c-21 -13 -11 -55 15 -59 24 -4 48 30 39 54 -6 16 -34 18
-54 5z"/>
<path d="M6210 4656 c0 -8 16 -27 35 -42 27 -20 34 -31 29 -49 -7 -27 41 -86
95 -116 20 -11 28 -18 17 -14 -17 5 -17 4 -4 -17 14 -22 26 -104 33 -232 4
-71 11 -90 29 -83 14 6 26 -37 26 -95 0 -16 5 -28 10 -28 6 0 10 20 10 45 0
38 3 45 20 45 11 0 20 -4 20 -10 0 -5 7 -10 15 -10 8 0 15 -5 15 -11 0 -5 -6
-7 -12 -4 -7 4 7 -13 32 -37 l45 -43 6 45 c4 25 23 92 43 149 49 141 48 235
-1 265 -12 6 -8 12 16 27 41 24 41 60 2 100 -43 43 -107 33 -136 -21 -12 -22
-13 -21 -56 30 -55 64 -84 80 -151 80 -35 0 -64 7 -86 20 -39 24 -52 25 -52 6z
m260 -409 c0 -7 -4 -17 -9 -22 -5 -6 -11 -19 -14 -30 -4 -15 -5 -13 -6 8 0 15
4 27 9 27 6 0 10 5 10 11 0 5 -4 7 -10 4 -5 -3 -10 -1 -10 4 0 6 7 11 15 11 8
0 15 -6 15 -13z m143 -214 c3 -5 -8 -8 -23 -8 -15 0 -26 3 -23 8 2 4 13 7 23
7 10 0 21 -3 23 -7z m4 -37 c0 -8 -6 -12 -15 -9 -11 5 -11 7 0 14 7 5 13 9 14
9 0 0 1 -6 1 -14z"/>
<path d="M6290 4420 l-55 -7 48 -1 c29 -1 46 -6 42 -12 -4 -6 5 -10 20 -10 23
0 24 2 15 20 -6 11 -12 19 -13 18 -1 -1 -27 -4 -57 -8z"/>
<path d="M5918 4403 c6 -2 18 -2 25 0 6 3 1 5 -13 5 -14 0 -19 -2 -12 -5z"/>
<path d="M6148 4403 c12 -2 30 -2 40 0 9 3 -1 5 -23 4 -22 0 -30 -2 -17 -4z"/>
<path d="M5778 4393 c12 -2 30 -2 40 0 9 3 -1 5 -23 4 -22 0 -30 -2 -17 -4z"/>
<path d="M6233 4383 c15 -2 39 -2 55 0 15 2 2 4 -28 4 -30 0 -43 -2 -27 -4z"/>
<path d="M5883 4373 c9 -2 25 -2 35 0 9 3 1 5 -18 5 -19 0 -27 -2 -17 -5z"/>
<path d="M6098 4373 c12 -2 30 -2 40 0 9 3 -1 5 -23 4 -22 0 -30 -2 -17 -4z"/>
<path d="M5451 4354 c0 -11 3 -14 6 -6 3 7 2 16 -1 19 -3 4 -6 -2 -5 -13z"/>
<path d="M5738 4363 c12 -2 32 -2 45 0 12 2 2 4 -23 4 -25 0 -35 -2 -22 -4z"/>
<path d="M5638 4353 c12 -2 30 -2 40 0 9 3 -1 5 -23 4 -22 0 -30 -2 -17 -4z"/>
<path d="M5518 4343 c12 -2 30 -2 40 0 9 3 -1 5 -23 4 -22 0 -30 -2 -17 -4z"/>
<path d="M5873 4253 c9 -2 25 -2 35 0 9 3 1 5 -18 5 -19 0 -27 -2 -17 -5z"/>
<path d="M5738 4243 c12 -2 32 -2 45 0 12 2 2 4 -23 4 -25 0 -35 -2 -22 -4z"/>
<path d="M5618 4233 c12 -2 30 -2 40 0 9 3 -1 5 -23 4 -22 0 -30 -2 -17 -4z"/>
<path d="M5523 4223 c9 -2 23 -2 30 0 6 3 -1 5 -18 5 -16 0 -22 -2 -12 -5z"/>
<path d="M5823 4223 c15 -2 37 -2 50 0 12 2 0 4 -28 4 -27 0 -38 -2 -22 -4z"/>
<path d="M5440 4205 c0 -8 8 -15 18 -15 13 0 14 2 3 9 -11 7 -11 9 0 14 10 4
9 6 -3 6 -10 1 -18 -6 -18 -14z"/>
<path d="M5718 4213 c7 -3 16 -2 19 1 4 3 -2 6 -13 5 -11 0 -14 -3 -6 -6z"/>
<path d="M5573 4203 c15 -2 39 -2 55 0 15 2 2 4 -28 4 -30 0 -43 -2 -27 -4z"/>
<path d="M5518 4193 c7 -3 16 -2 19 1 4 3 -2 6 -13 5 -11 0 -14 -3 -6 -6z"/>
<path d="M6108 4113 c18 -2 45 -2 60 0 15 2 0 4 -33 4 -33 0 -45 -2 -27 -4z"/>
<path d="M5958 4103 c17 -2 47 -2 65 0 17 2 3 4 -33 4 -36 0 -50 -2 -32 -4z"/>
<path d="M5813 4093 c20 -2 54 -2 75 0 20 2 3 4 -38 4 -41 0 -58 -2 -37 -4z"/>
<path d="M5643 4083 c15 -2 39 -2 55 0 15 2 2 4 -28 4 -30 0 -43 -2 -27 -4z"/>
<path d="M6038 4083 c23 -2 59 -2 80 0 20 2 1 4 -43 4 -44 0 -61 -2 -37 -4z"/>
<path d="M5508 4073 c12 -2 30 -2 40 0 9 3 -1 5 -23 4 -22 0 -30 -2 -17 -4z"/>
<path d="M5888 4073 c17 -2 47 -2 65 0 17 2 3 4 -33 4 -36 0 -50 -2 -32 -4z"/>
<path d="M5748 4063 c18 -2 45 -2 60 0 15 2 0 4 -33 4 -33 0 -45 -2 -27 -4z"/>
<path d="M5608 4053 c6 -2 18 -2 25 0 6 3 1 5 -13 5 -14 0 -19 -2 -12 -5z"/>
<path d="M5443 4043 c9 -2 23 -2 30 0 6 3 -1 5 -18 5 -16 0 -22 -2 -12 -5z"/>
<path d="M5978 3763 c23 -2 59 -2 80 0 20 2 1 4 -43 4 -44 0 -61 -2 -37 -4z"/>
<path d="M5758 3753 c17 -2 47 -2 65 0 17 2 3 4 -33 4 -36 0 -50 -2 -32 -4z"/>
<path d="M5568 3743 c18 -2 45 -2 60 0 15 2 0 4 -33 4 -33 0 -45 -2 -27 -4z"/>
<path d="M6043 3743 c9 -2 23 -2 30 0 6 3 -1 5 -18 5 -16 0 -22 -2 -12 -5z"/>
<path d="M5868 3733 c18 -2 45 -2 60 0 15 2 0 4 -33 4 -33 0 -45 -2 -27 -4z"/>
<path d="M5653 3723 c20 -2 54 -2 75 0 20 2 3 4 -38 4 -41 0 -58 -2 -37 -4z"/>
<path d="M5498 3713 c18 -2 45 -2 60 0 15 2 0 4 -33 4 -33 0 -45 -2 -27 -4z"/>
<path d="M5753 3613 c9 -2 23 -2 30 0 6 3 -1 5 -18 5 -16 0 -22 -2 -12 -5z"/>
<path d="M5553 3603 c15 -2 39 -2 55 0 15 2 2 4 -28 4 -30 0 -43 -2 -27 -4z"/>
<path d="M5668 3583 c12 -2 30 -2 40 0 9 3 -1 5 -23 4 -22 0 -30 -2 -17 -4z"/>
<path d="M5478 3573 c12 -2 32 -2 45 0 12 2 2 4 -23 4 -25 0 -35 -2 -22 -4z"/>
<path d="M5958 3473 c12 -2 30 -2 40 0 9 3 -1 5 -23 4 -22 0 -30 -2 -17 -4z"/>
<path d="M5728 3463 c28 -2 76 -2 105 0 28 2 5 3 -53 3 -58 0 -81 -1 -52 -3z"/>
<path d="M5458 3453 c17 -2 47 -2 65 0 17 2 3 4 -33 4 -36 0 -50 -2 -32 -4z"/>
<path d="M5883 3443 c26 -2 67 -2 90 0 23 2 2 3 -48 3 -49 0 -68 -1 -42 -3z"/>
<path d="M5593 3433 c26 -2 68 -2 95 0 26 2 4 3 -48 3 -52 0 -74 -1 -47 -3z"/>
<path d="M6036 3395 c4 -8 8 -15 10 -15 2 0 4 7 4 15 0 8 -4 15 -10 15 -5 0
-7 -7 -4 -15z"/>
<path d="M5463 3103 c-31 -3 -43 -9 -43 -20 0 -14 16 -15 134 -11 133 5 162
11 151 29 -6 9 -153 10 -242 2z m215 -10 c-16 -2 -40 -2 -55 0 -16 2 -3 4 27
4 30 0 43 -2 28 -4z m-190 -10 c-10 -2 -28 -2 -40 0 -13 2 -5 4 17 4 22 1 32
-1 23 -4z m75 0 c-7 -2 -21 -2 -30 0 -10 3 -4 5 12 5 17 0 24 -2 18 -5z"/>
<path d="M5840 2845 c14 -7 27 -10 30 -5 3 5 21 10 40 13 21 2 8 4 -30 5 -60
1 -63 0 -40 -13z"/>
<path d="M5740 2830 c-11 -7 -6 -10 20 -10 26 0 31 3 20 10 -8 5 -17 10 -20
10 -3 0 -12 -5 -20 -10z"/>
<path d="M5928 2833 c6 -2 18 -2 25 0 6 3 1 5 -13 5 -14 0 -19 -2 -12 -5z"/>
<path d="M6103 2833 c32 -2 81 -2 110 0 29 2 3 3 -58 3 -60 0 -84 -1 -52 -3z"/>
<path d="M5493 2643 c20 -2 54 -2 75 0 20 2 3 4 -38 4 -41 0 -58 -2 -37 -4z"/>
<path d="M5683 2643 c20 -2 54 -2 75 0 20 2 3 4 -38 4 -41 0 -58 -2 -37 -4z"/>
<path d="M5483 2613 c26 -2 68 -2 95 0 26 2 4 3 -48 3 -52 0 -74 -1 -47 -3z"/>
<path d="M5593 2403 c37 -2 97 -2 135 0 37 2 6 3 -68 3 -74 0 -105 -1 -67 -3z"/>
<path d="M5823 2283 c15 -2 39 -2 55 0 15 2 2 4 -28 4 -30 0 -43 -2 -27 -4z"/>
<path d="M5973 2283 c9 -2 23 -2 30 0 6 3 -1 5 -18 5 -16 0 -22 -2 -12 -5z"/>
<path d="M5423 2253 c15 -2 39 -2 55 0 15 2 2 4 -28 4 -30 0 -43 -2 -27 -4z"/>
<path d="M5788 2253 c28 -2 76 -2 105 0 28 2 5 3 -53 3 -58 0 -81 -1 -52 -3z"/>
<path d="M5778 2003 c7 -3 16 -2 19 1 4 3 -2 6 -13 5 -11 0 -14 -3 -6 -6z"/>
<path d="M6008 2003 c34 -2 88 -2 120 0 31 2 3 3 -63 3 -66 0 -92 -1 -57 -3z"/>
<path d="M5428 1983 c12 -2 30 -2 40 0 9 3 -1 5 -23 4 -22 0 -30 -2 -17 -4z"/>
<path d="M5538 1983 c12 -2 32 -2 45 0 12 2 2 4 -23 4 -25 0 -35 -2 -22 -4z"/>
<path d="M5738 1983 c6 -2 18 -2 25 0 6 3 1 5 -13 5 -14 0 -19 -2 -12 -5z"/>
<path d="M5438 1833 c18 -2 45 -2 60 0 15 2 0 4 -33 4 -33 0 -45 -2 -27 -4z"/>
<path d="M5578 1833 c12 -2 32 -2 45 0 12 2 2 4 -23 4 -25 0 -35 -2 -22 -4z"/>
<path d="M5408 1713 c7 -3 16 -2 19 1 4 3 -2 6 -13 5 -11 0 -14 -3 -6 -6z"/>
<path d="M5453 1713 c9 -2 23 -2 30 0 6 3 -1 5 -18 5 -16 0 -22 -2 -12 -5z"/>
<path d="M5538 1713 c12 -2 32 -2 45 0 12 2 2 4 -23 4 -25 0 -35 -2 -22 -4z"/>
<path d="M5928 1703 c39 -2 105 -2 145 0 39 1 7 3 -73 3 -80 0 -112 -2 -72 -3z"/>
<path d="M5528 1683 c50 -2 134 -2 185 0 50 1 9 3 -93 3 -102 0 -143 -2 -92
-3z"/>
<path d="M5858 1683 c12 -2 32 -2 45 0 12 2 2 4 -23 4 -25 0 -35 -2 -22 -4z"/>
<path d="M3905 4180 c-4 -6 5 -24 19 -41 26 -31 35 -24 15 12 -5 11 -15 16
-21 13 -7 -5 -8 -2 -4 5 5 7 14 10 22 7 8 -3 14 -1 14 4 0 13 -37 13 -45 0z"/>
<path d="M4000 4120 c0 -5 5 -10 11 -10 5 0 7 5 4 10 -3 6 -8 10 -11 10 -2 0
-4 -4 -4 -10z"/>
<path d="M6280 3760 c0 -5 5 -10 11 -10 5 0 7 5 4 10 -3 6 -8 10 -11 10 -2 0
-4 -4 -4 -10z"/>
<path d="M3613 3679 c-1 -10 2 -19 8 -19 11 0 12 27 1 34 -4 2 -9 -4 -9 -15z"/>
<path d="M3656 3487 c3 -10 9 -15 12 -12 3 3 0 11 -7 18 -10 9 -11 8 -5 -6z"/>
<path d="M6155 3139 c-4 -6 -5 -12 -2 -15 2 -3 7 2 10 11 7 17 1 20 -8 4z"/>
<path d="M6250 6151 c-28 -54 5 -105 48 -75 26 18 28 41 6 72 -19 27 -40 28
-54 3z"/>
<path d="M6066 6144 c-21 -21 -20 -67 2 -87 16 -15 20 -15 40 -1 23 16 29 48
12 59 -5 3 -10 15 -10 26 0 23 -23 25 -44 3z"/>
<path d="M5845 6099 c-8 -25 13 -79 31 -79 7 0 21 11 30 25 14 21 15 31 6 50
-15 32 -58 34 -67 4z"/>
<path d="M5485 6057 c-19 -47 41 -91 65 -48 16 31 13 43 -9 32 -15 -9 -22 -6
-34 12 -14 20 -16 21 -22 4z"/>
<path d="M5688 6064 c-11 -10 3 -34 19 -34 8 0 13 7 11 17 -3 18 -20 27 -30
17z"/>
<path d="M7803 3793 c2 -10 8 -26 12 -35 7 -17 -2 -18 -103 -18 -127 0 -142
-4 -142 -35 0 -33 25 -54 71 -61 32 -5 39 -10 33 -23 -13 -33 -9 -46 17 -49
21 -2 29 3 39 29 l13 31 71 -7 c39 -4 71 -7 72 -8 54 -105 273 -569 299 -636
32 -82 35 -95 22 -108 -12 -12 -12 -21 -2 -56 11 -37 16 -42 45 -45 l32 -3 -3
50 c-4 55 1 61 50 61 58 0 86 -58 50 -104 -11 -14 -19 -26 -17 -26 2 0 68 -11
148 -25 238 -41 422 -67 428 -61 3 3 -16 63 -42 134 -72 190 -141 404 -202
622 -30 107 -65 231 -79 275 -14 44 -25 85 -25 91 0 10 -389 24 -683 24 -99 0
-109 -2 -104 -17z"/>
<path d="M3823 3713 c13 -3 16 -11 12 -26 -5 -17 -4 -19 4 -7 17 24 13 40 -11
39 -18 -1 -19 -2 -5 -6z"/>
<path d="M3510 3625 c0 -5 5 -17 10 -25 5 -8 10 -10 10 -5 0 6 -5 17 -10 25
-5 8 -10 11 -10 5z"/>
<path d="M3375 3590 c-15 -16 -16 -23 -6 -33 9 -9 16 -7 31 13 29 39 8 56 -25
20z"/>
<path d="M3351 3533 c0 -12 -5 -24 -11 -28 -5 -3 -7 -13 -4 -23 3 -9 8 -23 10
-31 3 -8 7 -12 10 -9 2 3 0 17 -5 30 -6 17 -6 29 1 36 5 5 8 18 5 28 -4 16 -5
16 -6 -3z"/>
<path d="M3517 3515 c-5 -10 -3 -14 5 -9 8 5 9 -6 5 -40 -4 -30 -3 -45 3 -41
12 8 13 75 1 93 -7 11 -9 10 -14 -3z"/>
<path d="M3445 3430 c-3 -5 3 -10 14 -10 12 0 21 5 21 10 0 6 -6 10 -14 10 -8
0 -18 -4 -21 -10z"/>
<path d="M7967 3273 c-4 -3 -7 -21 -7 -39 0 -27 -5 -34 -31 -43 -19 -7 -28
-15 -23 -22 4 -8 3 -9 -4 -5 -15 9 -24 -15 -61 -158 l-29 -111 21 -8 c12 -4
36 -19 54 -33 54 -41 113 -62 197 -70 l79 -7 -7 43 c-4 23 -38 117 -75 209
-92 220 -107 252 -114 244z"/>
<path d="M4326 3071 c19 -18 51 -22 51 -6 0 10 -10 15 -31 15 -18 0 -26 -4
-20 -9z"/>
<path d="M4315 3040 c-18 -8 -17 -9 8 -9 16 -1 26 3 22 9 -3 6 -7 10 -8 9 -1
0 -11 -4 -22 -9z"/>
<path d="M7826 2715 c24 -39 24 -40 24 -28 0 6 -9 21 -21 34 l-20 24 17 -30z"/>
<path d="M7395 2669 c28 -11 61 -22 75 -24 l24 -3 -23 19 c-13 11 -31 19 -41
19 -10 0 -33 2 -51 5 -29 5 -27 3 16 -16z"/>
<path d="M7872 2590 c0 -14 2 -19 5 -12 2 6 2 18 0 25 -3 6 -5 1 -5 -13z"/>
<path d="M2400 2500 l-1185 -5 1162 -3 c1007 -2 1162 -4 1165 -17 2 -12 7 -11
28 5 14 10 23 20 20 22 -3 2 -538 1 -1190 -2z"/>
<path d="M1692 2443 c48 -2 129 -2 180 0 51 1 12 3 -87 3 -99 0 -141 -2 -93
-3z"/>
<path d="M2078 2443 c23 -2 59 -2 80 0 20 2 1 4 -43 4 -44 0 -61 -2 -37 -4z"/>
<path d="M2663 2443 c42 -2 112 -2 155 0 42 1 7 3 -78 3 -85 0 -120 -2 -77 -3z"/>
<path d="M1627 2393 c18 -2 50 -2 70 0 21 2 7 4 -32 4 -38 0 -55 -2 -38 -4z"/>
<path d="M1773 2393 c15 -2 37 -2 50 0 12 2 0 4 -28 4 -27 0 -38 -2 -22 -4z"/>
<path d="M1923 2393 c32 -2 81 -2 110 0 29 2 3 3 -58 3 -60 0 -84 -1 -52 -3z"/>
<path d="M2168 2393 c7 -3 16 -2 19 1 4 3 -2 6 -13 5 -11 0 -14 -3 -6 -6z"/>
<path d="M2603 2393 c37 -2 97 -2 135 0 37 2 6 3 -68 3 -74 0 -105 -1 -67 -3z"/>
<path d="M2810 2391 c0 -5 9 -7 20 -4 11 3 20 7 20 9 0 2 -9 4 -20 4 -11 0
-20 -4 -20 -9z"/>
<path d="M160 2315 c0 -28 4 -36 24 -41 31 -7 46 1 46 27 0 14 5 19 18 17 11
-2 16 -11 14 -26 -2 -15 2 -22 12 -22 21 0 22 53 2 70 -23 18 -61 8 -64 -17
-5 -32 -32 -30 -32 2 0 14 -4 25 -10 25 -5 0 -10 -16 -10 -35z"/>
<path d="M1643 2343 c15 -2 37 -2 50 0 12 2 0 4 -28 4 -27 0 -38 -2 -22 -4z"/>
<path d="M1748 2343 c12 -2 32 -2 45 0 12 2 2 4 -23 4 -25 0 -35 -2 -22 -4z"/>
<path d="M2605 2340 c-22 -5 16 -6 85 -3 69 3 127 7 129 9 8 7 -173 1 -214 -6z"/>
<path d="M2018 2333 c12 -2 30 -2 40 0 9 3 -1 5 -23 4 -22 0 -30 -2 -17 -4z"/>
<path d="M2138 2333 c34 -2 90 -2 125 0 34 2 6 3 -63 3 -69 0 -97 -1 -62 -3z"/>
<path d="M2413 2333 c9 -2 25 -2 35 0 9 3 1 5 -18 5 -19 0 -27 -2 -17 -5z"/>
<path d="M2528 2333 c6 -2 18 -2 25 0 6 3 1 5 -13 5 -14 0 -19 -2 -12 -5z"/>
<path d="M1922 2283 c159 -2 417 -2 575 0 159 1 29 2 -287 2 -316 0 -446 -1
-288 -2z"/>
<path d="M172 2238 c-7 -7 -12 -21 -12 -33 0 -32 19 -45 65 -45 23 0 46 5 53
12 18 18 14 56 -7 68 -27 14 -84 13 -99 -2z m93 -27 c3 -6 -4 -15 -16 -22 -24
-13 -75 4 -64 21 8 13 72 13 80 1z"/>
<path d="M1928 2233 c156 -2 408 -2 560 0 152 1 25 2 -283 2 -308 0 -433 -1
-277 -2z"/>
<path d="M160 2105 c0 -25 5 -45 10 -45 6 0 10 14 10 30 0 17 2 30 5 30 3 0
28 -11 55 -25 41 -21 50 -23 50 -10 0 15 -94 65 -120 65 -6 0 -10 -20 -10 -45z"/>
<path d="M172 2038 c-7 -7 -12 -21 -12 -33 0 -32 19 -45 65 -45 23 0 46 5 53
12 18 18 14 56 -7 68 -27 14 -84 13 -99 -2z m93 -27 c3 -6 -4 -15 -16 -22 -24
-13 -75 4 -64 21 8 13 72 13 80 1z"/>
<path d="M160 1918 c0 -7 5 -20 11 -28 8 -11 12 -12 16 -2 3 7 24 12 54 12 37
0 49 4 49 15 0 12 -14 15 -65 15 -45 0 -65 -4 -65 -12z"/>
<path d="M172 1858 c-17 -17 -15 -65 3 -72 12 -4 15 1 13 21 -4 39 23 41 58 3
16 -16 32 -30 36 -30 5 0 8 20 8 45 0 25 -4 45 -10 45 -5 0 -10 -9 -10 -21 l0
-20 -26 20 c-30 24 -54 27 -72 9z"/>
<path d="M215 1758 c-12 -42 -14 -43 -20 -20 -4 12 -14 22 -21 22 -20 0 -17
-17 7 -51 34 -48 109 -37 109 16 0 12 -5 26 -12 33 -16 16 -58 15 -63 0z m55
-33 c0 -16 -27 -27 -36 -14 -3 5 -3 16 0 24 6 17 36 9 36 -10z"/>
<path d="M212 1633 c-10 -27 -11 -28 -17 -5 -8 24 -35 31 -35 8 0 -7 9 -25 21
-40 35 -45 109 -32 109 19 0 50 -62 63 -78 18z m58 -13 c0 -4 -6 -13 -14 -19
-17 -14 -31 2 -22 24 5 15 36 10 36 -5z"/>
<path d="M1050 1629 c0 -5 4 -7 10 -4 6 3 7 -1 4 -9 -5 -12 0 -16 20 -16 24 0
25 2 14 20 -13 21 -48 28 -48 9z"/>
<path d="M1167 1625 c-10 -23 9 -26 33 -5 l23 20 -25 0 c-14 0 -28 -7 -31 -15z"/>
<path d="M2733 1562 c-17 -11 -5 -50 17 -57 44 -14 59 22 22 53 -18 14 -23 14
-39 4z"/>
<path d="M160 1516 c0 -35 13 -46 51 -46 14 0 19 7 19 26 0 19 4 25 18 22 11
-3 16 -12 15 -26 -2 -14 3 -22 12 -22 20 0 20 53 1 70 -23 18 -61 8 -64 -17
-5 -32 -32 -30 -32 2 0 14 -4 25 -10 25 -5 0 -10 -15 -10 -34z"/>
<path d="M178 1453 c-22 -5 -24 -23 -3 -23 8 0 15 -4 15 -10 0 -5 -7 -7 -15
-4 -21 8 -19 -2 6 -27 16 -16 23 -18 29 -9 6 9 11 7 19 -6 8 -15 13 -16 19 -6
5 7 13 12 18 11 24 -4 26 3 4 16 -19 11 -21 14 -7 15 21 0 23 20 2 20 -8 0
-15 5 -15 11 0 6 -9 8 -20 4 -11 -4 -20 -2 -20 4 0 11 -3 12 -32 4z m52 -43
c0 -5 -2 -10 -4 -10 -3 0 -8 5 -11 10 -3 6 -1 10 4 10 6 0 11 -4 11 -10z"/>
<path d="M130 1285 c0 -12 18 -15 100 -15 82 0 100 3 100 15 0 12 -18 15 -100
15 -82 0 -100 -3 -100 -15z"/>
<path d="M261 1196 l-25 -26 -23 22 c-27 25 -33 5 -6 -24 15 -17 14 -18 -25
-18 -31 0 -42 -4 -42 -15 0 -12 15 -15 75 -15 60 0 75 3 75 15 0 9 -9 15 -21
15 -21 0 -21 0 1 18 12 10 21 26 19 36 -4 16 -7 15 -28 -8z"/>
<path d="M190 1077 c0 -13 5 -28 12 -35 15 -15 61 -15 76 0 18 18 15 58 -4 58
-8 0 -13 -4 -10 -9 3 -4 -1 -16 -8 -27 -12 -16 -16 -16 -30 -5 -9 8 -15 20
-12 28 3 7 -1 13 -9 13 -9 0 -15 -9 -15 -23z"/>
<path d="M202 998 c-20 -20 -14 -56 13 -74 23 -15 27 -15 50 0 27 18 33 54 13
74 -15 15 -61 15 -76 0z m64 -29 c6 -10 -11 -29 -26 -29 -3 0 -11 4 -19 9 -17
11 -5 31 19 31 10 0 22 -5 26 -11z"/>
<path d="M190 900 c0 -5 -7 -10 -15 -10 -21 0 -19 -27 3 -32 9 -3 38 -2 62 1
37 5 46 10 48 29 2 12 -1 22 -7 22 -6 0 -11 -4 -11 -10 0 -5 -13 -10 -30 -10
-16 0 -30 5 -30 10 0 6 -4 10 -10 10 -5 0 -10 -4 -10 -10z"/>
<path d="M150 805 c0 -24 6 -37 19 -45 26 -14 43 -6 64 32 21 36 37 25 29 -19
-4 -19 -1 -24 9 -21 8 2 15 17 17 32 7 59 -51 77 -80 25 -20 -34 -43 -30 -34
7 5 17 2 24 -9 24 -10 0 -15 -10 -15 -35z"/>
<path d="M208 689 c-21 -11 -24 -49 -6 -67 7 -7 24 -12 38 -12 14 0 31 5 38
12 17 17 15 68 -3 68 -9 0 -12 -6 -9 -15 4 -8 3 -23 -2 -32 -6 -14 -9 -11 -13
16 -7 38 -17 45 -43 30z m22 -41 c0 -16 -3 -19 -11 -11 -6 6 -8 16 -5 22 11
17 16 13 16 -11z"/>
<path d="M202 578 c-7 -7 -12 -20 -12 -30 0 -13 -8 -18 -25 -18 -16 0 -25 -6
-25 -15 0 -12 15 -15 75 -15 74 0 75 0 75 26 0 41 -18 64 -48 64 -16 0 -33 -5
-40 -12z m66 -35 c2 -9 -7 -13 -27 -13 -30 0 -39 9 -24 24 11 10 46 3 51 -11z"/>
</g>
</svg>
