<?xml version="1.0" standalone="no"?>
<!DOCTYPE svg PUBLIC "-//W3C//DTD SVG 20010904//EN"
 "http://www.w3.org/TR/2001/REC-SVG-20010904/DTD/svg10.dtd">
<svg version="1.0" xmlns="http://www.w3.org/2000/svg"
 width="1000.000000pt" height="609.000000pt" viewBox="0 0 1000.000000 609.000000"
 preserveAspectRatio="xMidYMid meet">

<g transform="translate(0.000000,609.000000) scale(0.100000,-0.100000)"
fill="#000000" stroke="none">
<path d="M8400 6084 c0 -7 16 -62 101 -353 38 -129 69 -239 69 -243 0 -4 -69
-7 -154 -5 -85 1 -158 -1 -161 -5 -10 -9 90 -360 405 -1433 60 -203 172 -588
250 -855 78 -267 166 -566 195 -665 130 -435 521 -1860 636 -2317 l52 -208
104 0 103 0 0 3045 0 3045 -800 0 c-440 0 -800 -3 -800 -6z"/>
<path d="M4870 5690 l-325 -5 -3 -22 c-3 -21 -1 -21 20 -10 18 9 150 12 539
11 283 -1 525 -4 537 -8 18 -6 22 -3 22 13 0 12 -6 21 -12 22 -50 4 -510 3
-778 -1z"/>
<path d="M5829 5562 c-1 -4 0 -53 1 -109 l2 -103 -135 0 -135 0 6 45 5 45
-487 0 -486 0 0 56 c0 47 -3 55 -17 52 -15 -3 -17 -15 -14 -99 l3 -96 -38 -6
c-21 -4 -71 -4 -111 0 -72 6 -86 0 -61 -25 23 -23 0 -22 -55 4 -57 25 -57 26
-57 70 l0 44 -558 0 c-509 0 -560 -1 -582 -17 -50 -34 -50 -31 -50 -338 1
-159 0 -295 0 -302 0 -8 -43 -12 -148 -15 -108 -2 -154 -7 -165 -17 -16 -12
-17 -79 -18 -760 -1 -822 4 -767 -51 -636 -11 28 -13 23 -18 -65 -6 -101 -5
-102 -37 30 -40 166 -111 254 -228 285 -39 10 -80 27 -93 39 -12 11 -44 32
-69 46 -54 29 -89 71 -79 95 5 14 10 12 31 -12 21 -24 26 -26 35 -13 5 8 10
35 10 60 1 25 2 56 2 70 1 14 -2 33 -6 42 -6 13 -3 15 13 11 12 -3 46 -2 77 2
45 5 63 13 89 39 20 20 51 38 80 45 51 13 57 34 12 39 -19 2 -47 -9 -88 -37
-53 -35 -69 -41 -114 -41 -62 0 -95 21 -73 47 14 17 92 58 129 66 26 7 26 9
17 46 -5 22 -23 52 -40 68 -16 15 -27 21 -23 12 3 -9 -1 -22 -10 -29 -8 -7
-15 -19 -15 -26 0 -8 -4 -14 -10 -14 -11 0 -1 32 14 42 7 5 4 8 -6 8 -10 0
-18 -6 -18 -14 0 -8 -4 -18 -10 -21 -6 -3 -7 1 -4 9 4 10 1 16 -9 16 -9 0 -23
10 -31 22 -23 32 -40 12 -25 -30 9 -26 8 -34 -8 -51 -10 -10 -27 -21 -38 -23
-27 -4 -32 28 -5 35 16 4 20 12 18 35 -2 31 -2 31 -29 15 -43 -26 -62 -70 -56
-128 7 -62 34 -196 51 -252 8 -24 10 -40 5 -37 -10 6 -23 -61 -16 -80 10 -25
-47 -75 -107 -96 -73 -25 -175 -82 -208 -117 -68 -71 -114 -243 -125 -465 l-6
-138 41 0 c22 0 48 -3 58 -7 11 -4 15 -3 11 4 -5 7 9 14 35 18 75 13 105 30
113 65 4 19 15 34 28 39 20 8 23 3 37 -53 l15 -61 185 3 c147 3 187 6 196 18
10 12 13 10 19 -13 8 -32 8 -173 0 -181 -3 -3 -5 12 -5 34 l0 39 -117 -36
c-65 -21 -131 -40 -146 -44 -18 -3 -27 -11 -24 -19 3 -7 -1 -13 -8 -13 -7 0
-11 6 -8 13 3 8 -6 11 -29 9 -18 -2 -48 -3 -65 -4 l-33 -1 0 -85 c0 -65 -3
-85 -14 -85 -20 0 -26 -54 -26 -237 0 -102 -4 -163 -10 -163 -6 0 -10 -70 -10
-190 0 -165 2 -190 17 -198 19 -11 11 -42 -11 -42 -11 0 -13 -13 -9 -62 6 -82
8 -88 33 -88 15 0 20 -7 20 -27 0 -24 -28 -276 -60 -543 -21 -175 0 -663 30
-720 6 -10 10 -30 10 -44 l0 -26 -220 0 c-200 0 -220 -2 -229 -18 -6 -11 -6
-24 0 -35 9 -15 32 -17 219 -17 l208 0 9 26 c8 23 15 27 51 28 36 1 42 -2 42
-19 -1 -34 -32 -61 -70 -60 -29 0 -36 -4 -38 -23 l-3 -22 -699 0 c-681 0 -700
-1 -710 -19 -5 -11 -10 -22 -10 -25 0 -3 2039 -6 4530 -6 2781 0 4530 4 4530
9 0 5 -7 17 -16 25 -14 15 -335 16 -3383 16 -1852 0 -3371 4 -3377 8 -5 5 -34
14 -64 21 -30 7 -64 16 -75 20 -11 5 -30 13 -43 17 -13 5 1304 9 3064 9 2916
0 3087 1 3098 17 8 13 7 21 -4 33 -13 12 -69 15 -374 15 l-359 1 41 35 c75 64
142 234 142 361 0 35 4 63 9 63 4 0 6 11 4 24 -4 19 0 25 24 30 32 8 189 164
204 203 29 78 56 400 34 422 -6 6 -440 11 -1233 13 -1071 3 -1222 5 -1220 18
2 8 14 20 28 27 25 13 25 13 2 13 -19 0 -21 3 -13 18 5 9 8 22 8 27 -1 6 20
11 47 13 35 2 54 9 63 22 8 11 20 17 28 14 20 -8 19 -22 -2 -27 -10 -3 5 -5
32 -6 38 0 46 2 33 10 -10 5 -18 15 -18 21 0 6 7 5 18 -3 14 -11 13 -10 -2 9
-20 23 -32 30 -21 12 12 -19 -5 -10 -35 20 -30 29 -32 50 -7 50 7 0 6 -4 -3
-10 -12 -8 -10 -10 8 -10 13 0 34 -13 49 -30 32 -39 44 -38 36 3 -3 17 -6 36
-7 41 0 5 5 11 13 13 10 4 12 -3 9 -31 -4 -34 -2 -37 18 -32 13 4 29 0 38 -9
9 -9 17 -11 21 -5 3 5 11 10 16 10 6 0 3 -7 -6 -16 -11 -12 -25 -14 -50 -10
-36 7 -53 -5 -31 -23 19 -16 1054 -26 1668 -16 l477 7 -5 32 c-13 79 -28 125
-70 215 -25 53 -46 112 -48 131 -2 19 -6 42 -10 50 -5 12 18 37 80 90 l87 75
-279 3 -278 2 -111 108 c-105 102 -330 306 -388 352 -15 12 -31 19 -36 16 -17
-11 -101 81 -102 111 -1 34 -17 79 -18 51 -1 -16 -12 -18 -97 -18 -117 0 -126
-19 -16 -36 40 -6 74 -13 77 -16 7 -7 -145 -1 -285 12 -279 25 -683 23 -835
-4 -11 -2 -14 -1 -7 1 6 3 12 9 12 15 0 13 -143 2 -148 -12 -2 -5 -9 -7 -16
-4 -7 3 -23 0 -37 -6 -23 -10 -22 -10 6 -5 25 4 27 3 12 -6 -10 -6 -27 -9 -38
-6 -10 3 -19 0 -19 -6 0 -13 197 -366 249 -447 65 -101 57 -99 120 -30 l56 60
125 4 125 5 33 48 32 48 190 5 c189 5 190 5 190 -16 0 -12 -6 -37 -14 -55
l-14 -34 279 3 c225 3 280 1 284 -10 3 -7 -3 -38 -13 -68 l-19 -55 -599 -5
-599 -5 -74 -57 c-40 -31 -109 -76 -152 -101 -43 -24 -76 -47 -72 -50 3 -4 1
-7 -5 -7 -6 0 -24 -12 -41 -26 -25 -21 -31 -34 -31 -64 0 -41 -4 -45 -90 -85
-19 -9 -37 -19 -40 -23 -3 -4 -34 -22 -70 -40 -36 -18 -57 -31 -47 -28 10 3
15 2 12 -3 -5 -9 -27 -12 -75 -11 -8 0 -45 3 -81 6 -62 6 -73 4 -150 -31 -118
-54 -202 -63 -355 -41 -66 9 -128 18 -139 19 -20 2 -20 -5 -23 -517 -2 -409 0
-521 10 -528 10 -6 10 -8 1 -8 -9 0 -13 -16 -13 -49 l0 -48 103 -9 102 -8 -65
-7 c-36 -4 -126 -8 -200 -10 -74 -1 -110 -4 -80 -6 30 -2 60 -10 65 -17 7 -9
47 -16 113 -21 100 -7 104 -8 113 -34 6 -14 18 -34 26 -43 15 -17 2 -18 -266
-18 l-282 0 24 32 c13 18 27 42 29 53 3 11 9 27 13 37 4 11 0 18 -16 23 -40
13 2 25 89 25 l82 0 0 695 c0 549 3 695 13 695 9 0 9 2 -1 8 -17 11 -9 376 9
398 16 19 33 18 25 -2 -3 -9 -3 -67 1 -130 6 -112 6 -114 30 -114 17 0 22 4
17 13 -6 8 -3 8 9 -1 20 -17 37 -8 37 19 0 30 30 36 247 53 297 24 394 36 440
56 66 29 70 48 44 198 -12 70 -29 180 -38 244 l-17 117 -72 6 c-122 12 -207
-2 -267 -42 -55 -37 -184 -144 -278 -231 -40 -36 -56 -46 -52 -32 6 21 100
114 185 180 l50 40 -115 0 c-83 0 -116 4 -120 13 -3 9 25 11 126 9 l130 -3 43
31 c93 67 177 84 584 120 l205 17 -187 2 c-161 1 -188 -1 -188 -14 0 -10 -11
-15 -35 -15 -33 0 -34 1 -24 27 7 18 6 30 -1 37 -7 7 -10 5 -10 -5 0 -13 -22
-15 -132 -16 -74 0 -120 3 -103 7 l30 7 -35 5 c-20 3 0 5 47 6 45 1 84 6 87
10 2 4 336 9 740 11 l736 3 0 -22 c0 -13 -8 -24 -20 -27 -27 -7 -27 -43 0 -43
11 0 23 7 26 15 5 12 25 15 95 15 53 0 89 4 89 10 0 6 9 10 20 10 20 0 20 7
20 1305 0 1139 -2 1310 -15 1335 -32 63 -6 60 -609 60 l-549 0 5 -45 c5 -41 4
-46 -19 -51 -13 -4 -25 -5 -27 -3 -2 2 -5 38 -7 79 -4 73 -3 75 19 73 27 -3
28 7 2 39 -19 24 -59 43 -61 30z m-2249 -467 c0 -8 -4 -15 -10 -15 -5 0 -7 7
-4 15 4 8 8 15 10 15 2 0 4 -7 4 -15z m240 -20 c29 -15 62 -50 79 -82 6 -13
22 -24 34 -24 17 -1 18 -2 5 -6 -22 -5 -21 -1 -3 -54 27 -75 47 -89 130 -89
l72 0 13 -42 c20 -63 47 -98 76 -98 14 0 22 4 19 10 -4 6 7 10 24 10 17 0 31
-4 31 -8 0 -4 12 -9 26 -10 23 -2 24 0 10 14 -23 23 -21 74 3 74 15 0 18 -5
14 -21 -5 -19 -4 -20 16 -10 11 7 21 16 21 21 0 6 12 10 28 10 l27 -1 -32 -28
c-29 -27 -33 -41 -11 -41 4 0 17 9 29 21 11 11 27 18 36 15 13 -6 13 -9 -1
-31 l-16 -25 107 -2 c60 -1 115 -2 123 -3 25 -2 60 -25 59 -38 0 -9 -2 -9 -6
1 -2 6 -10 12 -16 12 -16 0 9 -23 27 -26 12 -2 13 3 6 22 -6 15 -6 26 1 30 8
5 8 8 0 13 -6 4 -3 11 9 19 12 7 20 8 20 2 0 -5 -5 -10 -11 -10 -5 0 -7 -5 -3
-11 3 -6 0 -15 -7 -20 -11 -7 -9 -9 7 -9 12 0 24 -8 28 -17 3 -10 9 -24 12
-30 3 -7 1 -13 -6 -13 -6 0 -9 4 -6 9 4 5 -3 7 -14 4 -19 -5 -19 -6 3 -24 14
-12 17 -18 7 -17 -11 2 -17 -9 -20 -42 -5 -36 -7 -40 -12 -20 -3 14 -7 -487
-8 -1112 -2 -626 -3 -1144 -4 -1150 -1 -7 -71 -81 -156 -164 l-154 -151 -16
31 c-19 38 -63 51 -102 31 -15 -7 -28 -10 -28 -5 0 20 -60 21 -105 1 -41 -18
-45 -23 -45 -54 0 -44 13 -54 81 -66 30 -5 46 -9 37 -10 -23 -1 -23 -29 -1
-53 11 -12 30 -18 58 -18 34 0 49 -7 83 -38 l41 -38 -159 -18 c-88 -9 -176
-20 -196 -23 -28 -5 -35 -3 -29 6 4 7 -7 5 -26 -5 -19 -10 -36 -18 -39 -17 -3
1 -6 -6 -7 -15 -1 -17 -22 -124 -30 -151 -3 -12 -31 -13 -163 -7 -131 6 -164
4 -187 -8 -44 -23 -148 -136 -177 -191 -29 -57 -33 -39 -10 41 34 116 118 209
289 315 l79 49 -410 0 -411 0 1 -22 c1 -22 6 -23 91 -29 l90 -5 -105 -2 c-102
-2 -105 -1 -116 23 -9 18 -9 25 0 29 6 2 0 5 -14 5 -14 1 -36 9 -49 18 -18 12
-22 13 -16 2 4 -8 4 -11 0 -6 -17 15 -19 49 -22 488 l-4 446 -44 -15 -45 -14
0 -449 c0 -247 -3 -449 -7 -449 -5 0 -14 -4 -21 -9 -26 -16 35 -108 90 -137
19 -10 63 -14 148 -14 l120 0 0 -680 0 -680 -126 0 c-97 0 -124 3 -118 13 6 8
3 8 -9 -2 -22 -18 -47 -7 -48 21 l-2 23 -4 -23 c-2 -12 -9 -22 -15 -22 -6 0
-9 3 -6 6 16 15 -29 101 -84 160 -86 91 -86 92 -48 -56 25 -99 31 -108 73
-113 18 -2 -12 -5 -65 -5 -96 -2 -98 -2 -104 22 -3 14 -3 29 0 34 3 5 12 127
21 273 8 145 20 311 25 369 18 195 33 882 28 1285 -6 457 -2 565 18 565 9 0
14 11 14 33 -1 30 -2 31 -15 13 -13 -17 -14 -15 -12 32 1 29 -1 52 -5 52 -5 0
-8 -11 -8 -25 0 -14 -5 -25 -11 -25 -6 0 -8 -10 -5 -22 l6 -23 -11 23 c-7 12
-19 22 -28 22 -13 -1 -13 -3 3 -15 17 -13 18 -18 7 -38 -13 -24 -71 -65 -71
-50 0 4 -5 1 -10 -7 -7 -11 -10 -7 -10 18 0 18 4 31 8 28 4 -2 14 -1 21 4 11
6 10 13 -8 35 -22 29 -27 60 -11 70 6 3 10 37 10 75 0 46 5 73 14 83 8 8 16
29 19 48 3 25 4 21 5 -18 2 -53 18 -103 34 -103 17 0 66 29 71 43 8 20 56 28
65 10 7 -11 14 -11 49 1 22 8 55 22 72 30 l31 17 0 765 c0 840 -2 811 59 847
25 14 58 17 213 17 l184 0 22 43 c11 23 24 54 27 70 7 26 9 27 77 27 38 0 78
4 88 10 10 5 32 44 50 87 41 98 54 118 97 144 62 38 125 43 183 14z m197 -111
c-3 -3 -12 -4 -19 -1 -8 3 -5 6 6 6 11 1 17 -2 13 -5z m476 -1 c-7 -2 -21 -2
-30 0 -10 3 -4 5 12 5 17 0 24 -2 18 -5z m2201 -42 c18 -21 19 -23 3 -18 -10
4 -21 7 -23 7 -2 0 -4 7 -4 16 0 8 -4 12 -10 9 -12 -7 -12 -3 -3 21 5 14 8 15
11 3 3 -7 14 -25 26 -38z m3 -1474 c-1 -265 -2 -48 -2 483 0 531 1 748 2 482
2 -265 2 -699 0 -965z m-649 1426 c-10 -2 -28 -2 -40 0 -13 2 -5 4 17 4 22 1
32 -1 23 -4z m-1340 -110 c-21 -2 -55 -2 -75 0 -21 2 -4 4 37 4 41 0 58 -2 38
-4z m443 -13 c239 0 369 -4 369 -10 0 -6 -129 -10 -366 -10 -332 0 -364 -1
-350 -16 29 -28 17 -28 -13 0 -21 20 -30 24 -34 14 -3 -7 -4 -3 -4 10 1 15 6
21 15 17 7 -3 180 -5 383 -5z m-7 -239 c10 -16 -23 -21 -132 -21 -69 0 -102 4
-93 9 11 7 4 11 -25 14 -21 2 25 4 103 5 78 1 144 -2 147 -7z m1284 -57 c44
-31 9 -124 -47 -124 -40 0 -57 86 -24 122 20 22 42 23 71 2z m-170 -66 l-3
-63 -35 0 -35 0 -1 50 c-1 68 3 75 43 75 l34 0 -3 -62z m68 3 c1 -61 1 -61
-48 -52 -10 1 -11 95 -1 104 3 4 16 7 27 7 19 0 21 -6 22 -59z m-726 9 c0 -6
-75 -10 -206 -10 -134 0 -203 3 -199 10 4 6 83 10 206 10 126 0 199 -4 199
-10z m485 -60 c4 -7 -64 -10 -197 -11 -112 -1 -286 -2 -388 -3 -209 -2 -310 3
-310 15 0 13 887 11 895 -1z m-3891 -126 c3 -8 2 -12 -4 -9 -6 3 -10 10 -10
16 0 14 7 11 14 -7z m4621 -13 c3 -5 2 -12 -3 -15 -5 -3 -9 1 -9 9 0 17 3 19
12 6z m-4480 -31 c3 -5 1 -10 -4 -10 -6 0 -11 5 -11 10 0 6 2 10 4 10 3 0 8
-4 11 -10z m4472 -1037 c-1 -192 -2 -35 -2 347 0 382 1 539 2 348 2 -192 2
-504 0 -695z m-4447 997 c0 -5 -8 -10 -17 -10 -15 0 -16 2 -3 10 19 12 20 12
20 0z m3110 -5 c0 -8 -7 -15 -16 -15 -8 0 -12 5 -9 10 3 6 -1 10 -9 10 -9 0
-16 -4 -16 -10 0 -6 -43 -9 -112 -8 -65 1 -94 4 -68 7 l45 5 -45 6 c-29 5 3 8
93 8 116 2 137 0 137 -13z m-410 -195 c0 -6 -43 -10 -110 -10 -67 0 -110 4
-110 10 0 6 43 10 110 10 67 0 110 -4 110 -10z m-2871 -46 c22 -28 19 -49 -10
-64 -24 -13 -39 14 -29 51 5 15 6 30 2 33 -3 3 0 6 6 6 6 0 20 -12 31 -26z
m-52 -16 c-3 -7 -5 -2 -5 12 0 14 2 19 5 13 2 -7 2 -19 0 -25z m3758 12 l-30
-7 35 -5 c19 -3 -59 -5 -175 -4 -115 0 -172 2 -125 5 l85 5 -85 6 c-58 4 -20
6 120 7 113 0 192 -3 175 -7z m72 -16 c-3 -3 -12 -4 -19 -1 -8 3 -5 6 6 6 11
1 17 -2 13 -5z m-3780 -186 c15 -16 44 -34 65 -40 27 -8 37 -16 33 -26 -3 -7
-5 -18 -5 -24 0 -18 -82 1 -122 28 -32 20 -38 30 -38 58 0 19 5 47 11 63 l12
28 8 -29 c4 -16 20 -42 36 -58z m3258 42 c-44 -5 -46 -7 -20 -11 17 -4 -27 -7
-97 -8 -108 -1 -128 1 -128 14 0 13 22 15 148 13 95 -1 129 -3 97 -8z m65 -5
c0 -10 -9 -15 -27 -14 -24 2 -25 2 -5 6 12 2 22 9 22 14 0 5 2 9 5 9 3 0 5 -7
5 -15z m-457 -40 c-2 -6 -47 -11 -103 -13 -85 -2 -100 0 -100 13 0 13 15 15
103 13 61 -2 101 -7 100 -13z m345 -172 c-10 -2 -18 -9 -18 -14 0 -15 -114
-11 -136 6 -17 13 -10 14 76 14 52 -1 87 -3 78 -6z m-3450 -64 c-3 -8 -7 -3
-11 10 -4 17 -3 21 5 13 5 -5 8 -16 6 -23z m3002 -94 c0 -11 -12 -15 -50 -15
-38 0 -50 4 -50 15 0 11 12 15 50 15 38 0 50 -4 50 -15z m1030 0 c0 -13 -50
-15 -390 -15 -340 0 -390 2 -390 15 0 13 50 15 390 15 340 0 390 -2 390 -15z
m414 0 c5 -13 -17 -15 -159 -15 -142 0 -164 2 -159 15 5 12 32 15 159 15 127
0 154 -3 159 -15z m-4037 -42 c-3 -10 -5 -2 -5 17 0 19 2 27 5 18 2 -10 2 -26
0 -35z m-79 30 c-20 -3 -28 -10 -28 -24 0 -23 -17 -24 -44 -4 -11 8 -31 16
-45 17 -36 2 54 15 104 15 27 0 31 -1 13 -4z m169 -40 c-3 -10 -5 -4 -5 12 0
17 2 24 5 18 2 -7 2 -21 0 -30z m71 30 c-10 -2 -26 -2 -35 0 -10 3 -2 5 17 5
19 0 27 -2 18 -5z m37 -3 c3 -5 1 -10 -4 -10 -6 0 -11 5 -11 10 0 6 2 10 4 10
3 0 8 -4 11 -10z m-276 -45 c0 -5 -4 -3 -9 5 -5 8 -9 22 -9 30 0 16 17 -16 18
-35z m21 19 c0 -8 -4 -12 -10 -9 -5 3 -10 13 -10 21 0 8 5 12 10 9 6 -3 10
-13 10 -21z m-99 -22 c-24 -2 -47 0 -52 5 -4 4 15 6 44 3 l52 -5 -44 -3z m296
-32 c-2 -23 -10 -17 -12 10 -1 10 2 17 6 14 4 -2 7 -13 6 -24z m-130 -32 c-2
-13 -4 -5 -4 17 -1 22 1 32 4 23 2 -10 2 -28 0 -40z m-67 32 c0 -5 -5 -10 -11
-10 -5 0 -7 5 -4 10 3 6 8 10 11 10 2 0 4 -4 4 -10z m217 -52 c-3 -7 -5 -2 -5
12 0 14 2 19 5 13 2 -7 2 -19 0 -25z m268 -2 c13 -2 21 -12 23 -29 3 -22 -1
-27 -20 -27 -15 0 -19 3 -11 8 10 6 10 12 -2 28 -15 19 -15 19 -9 -1 4 -15 3
-17 -4 -5 -5 8 -13 26 -17 40 -6 23 -6 23 7 7 7 -10 22 -19 33 -21z m2213 22
c-3 -9 -30 -14 -76 -16 -60 -3 -72 -1 -72 12 0 13 13 16 76 16 56 0 75 -3 72
-12z m-2541 -120 c-2 -24 -4 -5 -4 42 0 47 2 66 4 43 2 -24 2 -62 0 -85z m-80
5 c-3 -10 -5 -4 -5 12 0 17 2 24 5 18 2 -7 2 -21 0 -30z m-80 -15 c-3 -7 -5
-2 -5 12 0 14 2 19 5 13 2 -7 2 -19 0 -25z m513 -10 c0 -19 -2 -20 -10 -8 -13
19 -13 30 0 30 6 0 10 -10 10 -22z m2470 -8 c0 -5 -87 -10 -218 -12 -170 -2
-219 0 -219 10 0 9 51 12 219 12 133 0 218 -4 218 -10z m1159 -14 c18 -17 21
-31 21 -113 0 -145 41 -133 -453 -133 -341 0 -417 2 -433 14 -16 12 -20 29
-22 110 -4 92 -3 96 23 121 l26 27 409 -4 c383 -3 410 -5 429 -22z m-4137 -10
c7 4 8 2 4 -5 -10 -15 -26 -4 -25 17 1 15 2 15 6 -1 2 -9 9 -14 15 -11z m28
-73 c-9 -15 -10 -12 -6 17 5 33 5 34 -9 16 -10 -13 -15 -15 -15 -6 0 7 8 22
18 33 17 19 17 19 20 -12 2 -17 -2 -39 -8 -48z m-25 -9 c9 -15 12 -23 6 -20
-11 7 -35 46 -28 46 3 0 12 -12 22 -26z m-40 -224 c3 -5 2 -10 -4 -10 -5 0
-13 5 -16 10 -3 6 -2 10 4 10 5 0 13 -4 16 -10z m59 -2 c-4 -7 -3 -8 4 -4 6 4
22 1 34 -6 13 -7 26 -11 31 -10 4 1 7 -7 7 -18 0 -17 -6 -20 -42 -19 -24 0
-37 3 -30 6 9 3 7 10 -9 24 -12 10 -27 19 -33 19 -15 0 16 20 32 20 7 0 10 -5
6 -12z m3066 -22 c0 -9 -7 -12 -20 -9 -11 3 -20 9 -20 14 0 5 9 9 20 9 11 0
20 -6 20 -14z m-3106 -21 c3 -8 3 -15 0 -15 -3 0 -12 7 -20 15 -13 13 -13 15
-1 15 8 0 17 -7 21 -15z m259 -12 c-7 -2 -21 -2 -30 0 -10 3 -4 5 12 5 17 0
24 -2 18 -5z m4717 -21 c0 -10 -7 -19 -15 -19 -8 0 -15 9 -15 19 0 10 7 18 15
18 8 0 15 -8 15 -18z m-2493 -59 c-2 -16 -4 -5 -4 22 0 28 2 40 4 28 2 -13 2
-35 0 -50z m1278 27 c-27 -12 -43 -12 -25 0 8 5 22 9 30 9 10 0 8 -3 -5 -9z
m-66 -14 c-2 -2 -20 -6 -39 -10 -25 -4 -31 -3 -20 4 14 9 69 15 59 6z m-1139
-71 c0 -12 -19 -12 -23 0 -4 9 -1 12 9 8 7 -3 14 -7 14 -8z m-2483 -87 c-3 -8
-6 -5 -6 6 -1 11 2 17 5 13 3 -3 4 -12 1 -19z m2410 -65 c-2 -16 -4 -3 -4 27
0 30 2 43 4 28 2 -16 2 -40 0 -55z m80 45 c-3 -7 -5 -2 -5 12 0 14 2 19 5 13
2 -7 2 -19 0 -25z m0 -80 c-3 -7 -5 -2 -5 12 0 14 2 19 5 13 2 -7 2 -19 0 -25z
m-2803 6 c11 -27 6 -54 -8 -54 -10 0 -14 10 -13 35 2 37 11 45 21 19z m280
-1759 c9 -110 21 -236 26 -280 17 -139 35 -125 -151 -125 l-161 0 4 25 c5 23
2 25 -31 26 l-36 2 40 6 40 6 27 175 c75 473 140 983 183 1424 14 143 26 267
27 275 1 9 5 -288 9 -659 5 -478 11 -733 23 -875z m2265 1271 c-9 -19 -7 -33
10 -71 12 -26 21 -49 21 -51 0 -2 -24 -4 -54 -4 l-55 0 -36 60 c-49 81 -44 90
49 90 l76 0 -11 -24z m-1691 -215 l22 -21 -52 0 c-38 0 -49 3 -38 10 10 6 11
10 3 10 -19 0 -16 27 4 39 12 6 20 5 28 -4 5 -7 20 -22 33 -34z m1642 24 c5
-3 35 -43 69 -90 56 -78 59 -85 41 -95 -10 -5 -49 -10 -87 -10 -51 -1 -64 -3
-50 -11 9 -5 17 -15 17 -21 0 -12 -38 -48 -52 -48 -11 0 -10 17 2 25 14 9 12
25 -3 25 -23 0 -38 -22 -26 -37 9 -10 7 -13 -10 -13 -29 0 -28 44 1 64 21 15
3 16 -217 17 -132 1 -244 1 -248 0 -12 -2 2 96 18 136 15 36 8 34 225 58 111
13 300 12 320 0z m-1482 -2 c-10 -2 -26 -2 -35 0 -10 3 -2 5 17 5 19 0 27 -2
18 -5z m4923 -55 c1 -7 1 -17 0 -21 -1 -5 3 -6 9 -2 5 3 18 1 27 -4 12 -7 13
-10 4 -11 -7 0 -11 -6 -8 -13 6 -15 -39 -22 -48 -7 -3 6 -1 10 6 10 8 0 7 5
-3 18 -16 17 -14 42 3 42 5 0 10 -6 10 -12z m-1004 -14 c-3 -3 -12 -4 -19 -1
-8 3 -5 6 6 6 11 1 17 -2 13 -5z m301 -1 c-16 -2 -40 -2 -55 0 -16 2 -3 4 27
4 30 0 43 -2 28 -4z m320 0 c-49 -2 -127 -2 -175 0 -49 1 -9 3 87 3 96 0 136
-2 88 -3z m592 -11 c0 -11 -37 -31 -58 -32 -13 0 -33 9 -45 20 l-22 21 63 -2
c34 -1 62 -4 62 -7z m-552 -19 c-16 -2 -40 -2 -55 0 -16 2 -3 4 27 4 30 0 43
-2 28 -4z m65 0 c-7 -2 -19 -2 -25 0 -7 3 -2 5 12 5 14 0 19 -2 13 -5z m227
-7 c0 -3 -13 -19 -29 -36 -19 -22 -31 -28 -36 -20 -8 13 32 60 52 60 7 0 13
-2 13 -4z m155 -26 c31 0 41 -18 22 -37 -21 -22 -75 -9 -56 13 10 12 9 13 -6
7 -15 -5 -17 -3 -12 11 4 10 7 23 7 29 0 7 5 4 11 -5 5 -10 21 -18 34 -18z
m-872 -17 c-40 -2 -106 -2 -145 0 -40 1 -8 3 72 3 80 0 112 -2 73 -3z m210 0
c-7 -2 -19 -2 -25 0 -7 3 -2 5 12 5 14 0 19 -2 13 -5z m254 1 c-3 -3 -12 -4
-19 -1 -8 3 -5 6 6 6 11 1 17 -2 13 -5z m-1966 -29 l34 -15 -34 2 c-19 2 -36
9 -39 16 -5 15 -1 15 39 -3z m1406 9 c-3 -3 -12 -4 -19 -1 -8 3 -5 6 6 6 11 1
17 -2 13 -5z m873 2 c0 -2 -8 -10 -17 -17 -16 -13 -17 -12 -4 4 13 16 21 21
21 13z m-747 -13 c-7 -2 -21 -2 -30 0 -10 3 -4 5 12 5 17 0 24 -2 18 -5z m95
0 c-10 -2 -28 -2 -40 0 -13 2 -5 4 17 4 22 1 32 -1 23 -4z m129 1 c-3 -3 -12
-4 -19 -1 -8 3 -5 6 6 6 11 1 17 -2 13 -5z m550 -7 c0 -8 -6 -14 -14 -14 -9 0
-10 4 -2 14 6 7 12 13 14 13 1 0 2 -6 2 -13z m-124 -4 c-7 -2 -19 -2 -25 0 -7
3 -2 5 12 5 14 0 19 -2 13 -5z m-2086 -9 c-3 -3 -12 -4 -19 -1 -8 3 -5 6 6 6
11 1 17 -2 13 -5z m-80 -20 c-3 -3 -12 -4 -19 -1 -8 3 -5 6 6 6 11 1 17 -2 13
-5z m-1770 -56 c-3 -8 -6 -5 -6 6 -1 11 2 17 5 13 3 -3 4 -12 1 -19z m1743 -8
c6 -11 8 -20 6 -20 -3 0 -10 9 -16 20 -6 11 -8 20 -6 20 3 0 10 -9 16 -20z
m-111 -180 c14 -19 19 -29 10 -22 -14 11 -17 4 -28 -57 -6 -39 -11 -87 -11
-108 0 -21 -3 -48 -6 -61 -6 -21 -7 -21 -20 -5 -12 16 -13 15 -15 -12 -2 -46
-28 172 -28 243 l-1 63 36 -3 c28 -2 43 -11 63 -38z m-1851 -39 c15 -11 35
-34 45 -53 l18 -33 -21 28 c-12 15 -25 27 -29 27 -5 0 -11 -39 -15 -87 -3 -49
-9 -115 -12 -148 l-5 -60 23 26 c32 36 97 83 105 76 3 -4 8 -29 11 -56 4 -49
4 -51 -32 -72 -31 -18 -36 -26 -36 -57 0 -28 8 -43 40 -74 37 -35 40 -41 35
-76 -12 -68 -13 -68 -56 -26 -58 56 -62 67 -42 108 22 46 9 101 -29 129 l-28
21 -28 -21 -27 -20 -63 39 c-55 36 -62 43 -61 71 1 40 26 122 28 90 1 -14 22
-36 67 -68 36 -26 68 -44 71 -41 3 3 -2 36 -11 74 -10 38 -21 103 -25 145 l-7
77 29 0 c16 0 41 -9 55 -19z m3949 -7 c-3 -3 -12 -4 -19 -1 -8 3 -5 6 6 6 11
1 17 -2 13 -5z m-4300 -76 c-2 -13 -4 -5 -4 17 -1 22 1 32 4 23 2 -10 2 -28 0
-40z m4312 -54 c6 -53 10 -98 8 -100 -8 -8 -349 -13 -498 -7 l-167 6 -5 36
c-3 20 -9 64 -13 99 l-7 62 335 0 335 0 12 -96z m-4322 -81 c-2 -21 -4 -6 -4
32 0 39 2 55 4 38 2 -18 2 -50 0 -70z m2075 3 c37 -31 75 -56 85 -56 10 0 44
24 76 54 62 58 60 59 70 -21 3 -29 0 -34 -30 -44 -29 -9 -33 -15 -33 -47 l-1
-37 -22 37 c-25 44 -56 49 -88 17 l-20 -20 -77 38 -77 38 2 45 c1 25 5 56 8
70 l7 25 16 -21 c9 -12 47 -47 84 -78z m-2055 -38 c-3 -8 -6 -5 -6 6 -1 11 2
17 5 13 3 -3 4 -12 1 -19z m4536 15 c-7 -2 -21 -2 -30 0 -10 3 -4 5 12 5 17 0
24 -2 18 -5z m-4556 -45 c-3 -8 -6 -5 -6 6 -1 11 2 17 5 13 3 -3 4 -12 1 -19z
m20 -20 c-3 -8 -6 -5 -6 6 -1 11 2 17 5 13 3 -3 4 -12 1 -19z m-12 -102 c5
-35 9 -45 16 -35 6 10 9 5 9 -17 0 -43 19 -94 35 -94 7 0 16 -17 20 -37 6 -34
37 -167 51 -218 4 -16 3 -17 -5 -5 -9 13 -11 13 -11 0 0 -8 -16 2 -40 25 l-40
39 0 -39 c0 -26 -3 -36 -10 -29 -10 10 -47 135 -57 192 -3 17 -9 32 -14 32 -5
0 -9 5 -9 10 0 6 6 10 14 10 15 0 25 64 27 175 1 73 4 72 14 -9z m2179 58 c22
-22 20 -67 -4 -89 -17 -15 -24 -16 -45 -7 -25 12 -33 4 -15 -14 7 -7 -14 -24
-65 -53 -41 -24 -75 -47 -75 -51 0 -25 21 -111 36 -145 l17 -40 9 40 c9 44 87
215 97 212 17 -4 73 37 86 63 l16 30 29 -22 c27 -19 30 -27 29 -72 -1 -60 -12
-96 -23 -77 -9 13 -86 64 -91 59 -12 -14 -50 -113 -66 -175 -23 -91 -24 -123
-5 -123 28 0 44 30 57 102 l12 73 23 -50 c29 -62 29 -83 1 -116 -46 -55 -98
-63 -145 -24 -46 39 -96 182 -109 311 l-6 61 54 26 c29 15 61 27 71 27 10 0
23 11 29 24 10 21 40 43 61 45 4 1 14 -6 22 -15z m1066 1 c0 -1 -15 -14 -32
-31 -18 -16 -24 -19 -14 -6 11 12 16 22 12 22 -4 0 -5 4 -2 8 4 7 36 13 36 7z
m-2896 -41 c20 -19 21 -68 3 -83 -18 -14 -30 -2 -16 15 11 13 5 34 -10 34 -5
0 -14 -13 -21 -30 -16 -38 -30 -29 -30 19 0 57 39 81 74 45z m-54 -119 c13
-14 33 -25 44 -25 20 0 21 -6 24 -113 2 -62 -1 -124 -7 -139 -22 -57 19 -40
63 26 31 46 34 40 6 -13 -68 -134 -176 -97 -234 79 -15 47 -30 108 -33 136 -6
52 -6 52 38 84 24 17 48 39 54 48 7 14 10 10 16 -21 3 -20 16 -49 29 -62z
m3736 -114 c19 -117 40 -194 70 -251 19 -35 34 -71 34 -78 0 -8 6 -12 13 -9 7
3 22 -2 32 -10 18 -12 11 -14 -67 -12 l-88 2 0 113 0 114 -31 0 c-24 0 -29 -4
-25 -17 2 -10 7 -62 11 -115 l7 -98 -76 0 -76 0 -2 123 -2 122 -3 -123 -4
-122 -59 0 -60 0 0 195 0 194 63 3 c34 2 106 4 159 4 l98 1 6 -36z m-714 -274
c-2 -4 -6 -5 -10 -3 -4 2 -5 66 -2 143 l5 138 5 -135 c3 -74 4 -138 2 -143z
m-165 241 c-3 -28 -32 -58 -54 -57 -13 0 -12 3 6 10 18 7 22 15 19 34 -5 22 3
32 24 34 4 1 7 -9 5 -21z m-1949 -55 c-60 -2 -156 -2 -215 0 -60 1 -11 3 107
3 118 0 167 -2 108 -3z m575 0 c-51 -2 -136 -2 -190 0 -54 1 -12 3 92 3 105 0
149 -2 98 -3z m1245 0 c-10 -2 -28 -2 -40 0 -13 2 -5 4 17 4 22 1 32 -1 23 -4z
m-2941 -129 c-3 -3 -12 -4 -19 -1 -8 3 -5 6 6 6 11 1 17 -2 13 -5z m-957 -189
c0 -31 -20 -45 -61 -43 -19 1 -51 1 -71 0 -33 -2 -38 -5 -38 -27 0 -25 -1 -25
-80 -25 -44 0 -80 4 -80 10 0 5 -18 15 -40 21 -22 7 -40 16 -40 20 0 4 -8 10
-17 12 -10 3 45 5 123 6 138 1 141 1 154 26 10 19 22 25 59 27 72 5 91 -1 91
-27z"/>
<path d="M3685 4977 c-69 -39 -80 -107 -23 -138 34 -18 146 -14 169 7 41 37
15 114 -47 140 -44 18 -52 18 -99 -9z"/>
<path d="M3766 4731 c-4 -7 -5 -15 -2 -18 9 -9 19 4 14 18 -4 11 -6 11 -12 0z"/>
<path d="M4260 4606 l0 -37 -520 3 c-551 3 -546 4 -500 -42 19 -19 33 -20 524
-20 445 0 506 2 520 16 23 22 20 77 -4 99 -20 18 -20 17 -20 -19z"/>
<path d="M4742 4590 c0 -14 2 -19 5 -12 2 6 2 18 0 25 -3 6 -5 1 -5 -13z"/>
<path d="M3484 4369 c-3 -6 0 -15 7 -20 8 -5 269 -8 584 -6 534 2 570 3 573
20 3 16 -30 17 -577 17 -415 0 -582 -3 -587 -11z"/>
<path d="M3485 4289 c-4 -6 -3 -15 2 -20 5 -5 239 -8 574 -7 493 3 564 5 564
18 0 13 -71 15 -567 18 -402 1 -569 -1 -573 -9z"/>
<path d="M3497 4213 c-10 -3 -16 -10 -14 -16 3 -9 146 -13 555 -15 466 -2 552
0 552 12 0 7 -10 16 -22 20 -27 7 -1044 6 -1071 -1z"/>
<path d="M3484 4129 c-3 -6 -2 -15 3 -20 5 -5 221 -8 528 -7 486 3 520 4 523
21 3 16 -27 17 -522 17 -367 0 -527 -3 -532 -11z"/>
<path d="M3489 3849 c-42 -25 20 -29 447 -27 382 3 439 5 439 18 0 13 -56 15
-436 16 -240 1 -442 -2 -450 -7z"/>
<path d="M4383 3773 c-153 -3 -183 -6 -183 -18 0 -13 30 -15 201 -15 185 0
200 1 197 17 -2 10 -10 18 -18 18 -8 0 -97 -1 -197 -2z"/>
<path d="M3480 3755 c0 -13 42 -15 320 -15 278 0 320 2 320 15 0 13 -42 15
-320 15 -278 0 -320 -2 -320 -15z"/>
<path d="M3487 3684 c-20 -20 33 -24 319 -24 272 0 314 2 314 15 0 13 -41 15
-313 15 -173 0 -317 -3 -320 -6z"/>
<path d="M4207 3684 c-18 -18 17 -24 144 -24 117 0 139 2 139 15 0 13 -22 15
-138 15 -76 0 -142 -3 -145 -6z"/>
<path d="M3482 3598 c4 -10 79 -14 321 -16 278 -2 317 0 317 13 0 13 -41 15
-321 15 -252 0 -320 -3 -317 -12z"/>
<path d="M4200 3595 c0 -13 21 -15 152 -13 110 2 152 6 156 16 3 9 -32 12
-152 12 -133 0 -156 -2 -156 -15z"/>
<path d="M3487 3343 c-4 -3 -7 -10 -7 -15 0 -4 144 -8 320 -8 278 0 320 2 320
15 0 13 -41 15 -313 15 -173 0 -317 -3 -320 -7z"/>
<path d="M3485 3261 c-3 -5 -2 -12 3 -15 7 -4 581 -11 620 -7 6 0 12 8 12 16
0 13 -42 15 -314 15 -184 0 -317 -4 -321 -9z"/>
<path d="M3487 3183 c-4 -3 -7 -10 -7 -15 0 -4 144 -8 320 -8 278 0 320 2 320
15 0 13 -41 15 -313 15 -173 0 -317 -3 -320 -7z"/>
<path d="M4480 3175 c0 -12 14 -15 70 -15 56 0 70 3 70 15 0 12 -14 15 -70 15
-56 0 -70 -3 -70 -15z"/>
<path d="M3485 3100 c-17 -27 17 -30 321 -30 307 0 314 0 314 20 0 20 -7 20
-314 20 -199 0 -317 -4 -321 -10z"/>
<path d="M4367 3103 c-10 -2 -16 -10 -14 -16 2 -8 37 -13 95 -15 77 -2 92 0
92 13 0 12 -12 15 -57 15 -32 0 -67 2 -78 4 -11 2 -28 2 -38 -1z"/>
<path d="M2795 3015 l-120 -53 -11 -46 c-9 -34 -9 -46 0 -46 27 0 159 29 166
37 16 16 99 163 92 162 -4 -1 -61 -25 -127 -54z"/>
<path d="M2477 3013 c-4 -3 -7 -11 -7 -17 0 -6 5 -5 12 2 6 6 9 14 7 17 -3 3
-9 2 -12 -2z"/>
<path d="M2943 2884 c-43 -20 -100 -60 -142 -98 -57 -53 -81 -68 -133 -83
l-63 -18 55 -6 c30 -3 62 -9 70 -12 11 -5 22 5 39 37 15 30 33 48 54 55 37 13
47 14 27 1 -12 -8 -12 -10 5 -10 36 0 65 12 65 26 0 8 -5 14 -11 14 -5 0 -7
-5 -3 -12 5 -7 3 -8 -6 -3 -11 7 -10 11 4 19 90 54 104 66 109 92 3 16 4 30 3
31 -1 1 -34 -14 -73 -33z"/>
<path d="M3486 2815 c-3 -9 0 -18 7 -21 7 -2 174 -3 372 -2 312 3 360 5 360
18 0 13 -49 15 -366 18 -324 2 -367 0 -373 -13z"/>
<path d="M4465 2819 c-14 -22 14 -30 101 -27 71 2 89 6 89 18 0 12 -18 16 -92
18 -60 2 -94 -1 -98 -9z"/>
<path d="M3490 2730 c0 -20 6 -20 316 -20 295 0 315 1 312 18 -3 16 -27 17
-316 20 -307 2 -312 2 -312 -18z"/>
<path d="M4210 2730 c0 -19 7 -20 205 -20 198 0 205 1 205 20 0 19 -7 20 -205
20 -198 0 -205 -1 -205 -20z"/>
<path d="M3491 2661 c-41 -26 8 -31 315 -31 262 0 314 2 314 14 0 8 -7 17 -16
20 -25 9 -597 7 -613 -3z"/>
<path d="M4317 2663 c-10 -3 -16 -10 -14 -16 2 -8 42 -13 117 -15 129 -3 149
0 130 23 -10 12 -35 15 -114 14 -55 -1 -109 -3 -119 -6z"/>
<path d="M3497 2583 c-4 -3 -7 -12 -7 -20 0 -10 59 -13 315 -13 257 0 315 2
315 13 0 11 -45 15 -212 20 -269 9 -403 9 -411 0z"/>
<path d="M4305 2580 c-15 -24 12 -30 121 -30 90 0 114 3 114 14 0 23 -221 39
-235 16z"/>
<path d="M3160 2335 c0 -24 -2 -25 -77 -27 -78 -1 -78 -1 -23 -8 46 -6 49 -7
20 -10 -19 -1 -42 -3 -50 -4 -13 -1 -15 -30 -18 -183 l-3 -183 163 2 c90 1
142 3 117 5 -38 3 -48 8 -54 26 -4 12 -7 25 -6 29 0 3 -6 9 -14 12 -8 3 -15 0
-15 -7 0 -8 -3 -9 -8 -1 -4 6 -14 13 -22 16 -8 3 14 6 49 7 35 0 67 4 72 7 24
15 1 19 -78 12 -49 -3 -105 -7 -125 -7 l-37 -1 -3 48 c-2 26 0 66 3 89 4 27 2
44 -5 46 -6 3 5 3 24 1 19 -1 51 -3 70 -4 l35 -2 -30 -13 c-28 -13 -23 -13 55
-10 47 2 91 4 98 4 8 1 10 9 6 26 -4 16 -2 25 6 25 6 0 9 4 6 9 -4 5 3 7 14 4
12 -3 20 -2 19 3 -3 20 2 35 11 29 5 -3 6 -13 3 -23 -8 -22 1 -13 17 17 6 13
8 21 3 18 -6 -4 -23 -2 -39 3 -28 8 -27 8 13 9 l42 1 4 -97 3 -98 2 103 2 102
-80 0 c-79 0 -80 0 -80 25 0 23 -4 25 -45 25 -41 0 -45 -2 -45 -25z m-115 -65
c3 -5 2 -10 -4 -10 -5 0 -13 5 -16 10 -3 6 -2 10 4 10 5 0 13 -4 16 -10z m-18
-52 c-3 -7 -5 -2 -5 12 0 14 2 19 5 13 2 -7 2 -19 0 -25z m140 10 c-3 -8 -6
-5 -6 6 -1 11 2 17 5 13 3 -3 4 -12 1 -19z m-5 -255 c-6 -2 -9 -10 -6 -15 4
-7 2 -8 -5 -4 -13 9 -5 26 12 25 9 0 8 -2 -1 -6z m21 -23 c-10 -11 -19 -20
-21 -20 -1 0 2 9 8 20 6 11 15 20 20 20 6 0 2 -9 -7 -20z"/>
<path d="M3487 2293 c-20 -20 17 -23 263 -23 233 0 270 2 270 15 0 13 -36 15
-263 15 -145 0 -267 -3 -270 -7z"/>
<path d="M3355 2221 c-3 -5 -2 -12 3 -15 5 -3 9 1 9 9 0 17 -3 19 -12 6z"/>
<path d="M3317 2209 c7 -7 15 -10 18 -7 3 3 -2 9 -12 12 -14 6 -15 5 -6 -5z"/>
<path d="M3487 2214 c-19 -20 28 -24 264 -24 224 0 259 2 259 15 0 13 -35 15
-258 15 -142 0 -262 -3 -265 -6z"/>
<path d="M3077 2163 c-4 -3 -7 -13 -7 -22 1 -13 3 -13 11 2 11 19 8 33 -4 20z"/>
<path d="M3485 2129 c-10 -15 -2 -19 34 -22 17 -1 31 -3 31 -4 0 -2 -9 -12
-20 -23 -30 -30 -36 -68 -14 -90 22 -21 50 -27 81 -16 41 13 41 69 1 113 l-20
21 29 -1 c15 -1 112 0 216 1 159 2 187 4 187 17 0 13 -35 15 -259 15 -173 0
-262 -4 -266 -11z m113 -92 c-4 -26 -35 -33 -62 -14 -19 14 -18 15 3 36 17 17
25 19 42 11 13 -7 19 -19 17 -33z"/>
<path d="M3401 2034 c0 -11 3 -14 6 -6 3 7 2 16 -1 19 -3 4 -6 -2 -5 -13z"/>
<path d="M3693 2008 c3 -10 44 -13 162 -13 118 0 159 3 163 13 3 9 -34 12
-163 12 -129 0 -166 -3 -162 -12z"/>
<path d="M3500 1941 c0 -10 39 -11 45 -2 2 5 -7 9 -20 9 -14 0 -25 -3 -25 -7z"/>
<path d="M4095 1714 l-30 -26 33 22 c17 12 32 23 32 26 0 7 -4 5 -35 -22z"/>
<path d="M3810 1620 c-18 -12 -2 -12 25 0 13 6 15 9 5 9 -8 0 -22 -4 -30 -9z"/>
<path d="M2830 986 c0 -8 4 -17 9 -20 5 -4 7 3 4 14 -6 23 -13 26 -13 6z"/>
<path d="M2901 804 c0 -11 3 -14 6 -6 3 7 2 16 -1 19 -3 4 -6 -2 -5 -13z"/>
<path d="M2891 514 c0 -11 3 -14 6 -6 3 7 2 16 -1 19 -3 4 -6 -2 -5 -13z"/>
<path d="M6361 4432 c-10 -19 -4 -62 8 -62 17 0 20 15 6 30 -14 16 -14 19 0
34 9 9 12 16 6 16 -6 0 -15 -8 -20 -18z"/>
<path d="M6409 4431 c6 -10 7 -21 4 -25 -4 -3 -7 -18 -8 -32 l-1 -26 18 22
c21 26 23 51 6 68 -18 18 -30 14 -19 -7z"/>
<path d="M6380 4414 c0 -8 5 -12 10 -9 6 3 10 10 10 16 0 5 -4 9 -10 9 -5 0
-10 -7 -10 -16z"/>
<path d="M6208 4353 c6 -2 18 -2 25 0 6 3 1 5 -13 5 -14 0 -19 -2 -12 -5z"/>
<path d="M5313 4123 c9 -2 25 -2 35 0 9 3 1 5 -18 5 -19 0 -27 -2 -17 -5z"/>
<path d="M2155 3840 c3 -5 8 -10 11 -10 2 0 4 5 4 10 0 6 -5 10 -11 10 -5 0
-7 -4 -4 -10z"/>
<path d="M5218 3713 c6 -2 18 -2 25 0 6 3 1 5 -13 5 -14 0 -19 -2 -12 -5z"/>
<path d="M5483 3343 c9 -2 23 -2 30 0 6 3 -1 5 -18 5 -16 0 -22 -2 -12 -5z"/>
<path d="M5623 3343 c15 -2 37 -2 50 0 12 2 0 4 -28 4 -27 0 -38 -2 -22 -4z"/>
<path d="M5521 792 c-22 -41 12 -71 40 -34 13 15 12 16 -4 3 -15 -12 -17 -12
-11 2 3 9 1 24 -4 33 -9 16 -10 15 -21 -4z"/>
<path d="M3629 612 c-57 -40 -60 -49 -46 -117 13 -62 39 -105 62 -103 20 2 23
9 29 68 4 36 10 91 15 123 4 32 4 60 0 62 -3 3 -31 -13 -60 -33z"/>
<path d="M7352 460 c0 -19 2 -27 5 -17 2 9 2 25 0 35 -3 9 -5 1 -5 -18z"/>
<path d="M7236 448 c10 -77 16 -94 61 -169 26 -43 50 -79 54 -79 3 0 5 17 3
38 -2 20 -5 67 -8 104 -4 49 -11 73 -25 87 -11 11 -21 15 -23 10 -5 -16 -36 1
-43 22 -10 31 -24 22 -19 -13z"/>
<path d="M7421 389 c-1 -26 4 -39 15 -43 13 -5 14 -3 6 6 -5 7 -12 27 -15 43
-4 28 -4 28 -6 -6z"/>
<path d="M5720 5499 c0 -31 -23 -64 -38 -55 -7 4 -15 21 -20 39 l-8 32 -13
-23 c-17 -31 -7 -68 24 -88 23 -15 27 -15 50 0 32 21 41 57 21 93 l-15 28 -1
-26z"/>
<path d="M4394 5486 c-8 -34 3 -64 32 -82 22 -15 26 -15 49 0 27 18 33 53 13
89 -11 21 -12 21 -23 -13 -15 -46 -45 -53 -45 -11 0 38 -17 50 -26 17z"/>
<path d="M2295 3911 c-3 -5 -1 -12 5 -16 5 -3 10 1 10 9 0 18 -6 21 -15 7z"/>
<path d="M6736 2741 c-9 -14 5 -42 18 -38 18 6 20 47 2 47 -8 0 -17 -4 -20 -9z"/>
<path d="M6650 2719 c0 -5 5 -7 10 -4 6 3 10 8 10 11 0 2 -4 4 -10 4 -5 0 -10
-5 -10 -11z"/>
<path d="M5630 2610 c-12 -7 -12 -12 1 -27 34 -39 109 -175 103 -185 -5 -7 -2
-8 6 -3 10 6 12 4 7 -9 -5 -11 -3 -15 5 -10 8 5 9 2 5 -9 -4 -10 -2 -16 6 -14
7 1 11 -6 11 -15 -1 -10 3 -15 9 -11 6 4 8 0 4 -11 -4 -9 -3 -15 3 -11 5 3 26
-25 46 -62 21 -38 48 -82 61 -99 13 -17 20 -34 15 -39 -4 -5 -2 -5 4 -2 7 4
28 0 48 -8 42 -18 116 -20 116 -4 0 22 -231 432 -264 467 -11 13 -32 30 -46
37 -33 16 -122 26 -140 15z"/>
<path d="M7340 2566 c0 -2 8 -10 18 -17 15 -13 16 -12 3 4 -13 16 -21 21 -21
13z"/>
<path d="M160 2336 c0 -35 13 -46 51 -46 14 0 19 7 19 26 0 19 4 25 18 22 11
-3 16 -12 15 -26 -2 -14 3 -22 12 -22 18 0 21 50 3 68 -22 22 -57 14 -64 -13
-3 -14 -12 -25 -20 -25 -8 0 -14 10 -14 25 0 14 -4 25 -10 25 -5 0 -10 -15
-10 -34z"/>
<path d="M172 2258 c-7 -7 -12 -22 -12 -34 0 -48 68 -60 81 -14 l7 25 7 -22
c8 -25 35 -32 35 -9 0 7 -12 25 -26 40 -28 28 -72 34 -92 14z m48 -32 c0 -8
-5 -18 -11 -22 -14 -8 -33 11 -25 25 10 16 36 13 36 -3z"/>
<path d="M172 2148 c-16 -16 -15 -53 3 -68 21 -17 48 -9 62 20 l13 25 6 -22
c7 -25 34 -32 34 -9 0 7 -12 25 -26 40 -28 28 -72 34 -92 14z m48 -32 c0 -8
-5 -18 -11 -22 -14 -8 -33 11 -25 25 10 16 36 13 36 -3z"/>
<path d="M172 2038 c-7 -7 -12 -21 -12 -33 0 -32 19 -45 65 -45 23 0 46 5 53
12 18 18 14 56 -7 68 -27 14 -84 13 -99 -2z m93 -28 c10 -16 -43 -32 -66 -19
-11 5 -17 14 -14 20 8 12 72 12 80 -1z"/>
<path d="M160 1918 c0 -7 5 -20 11 -28 8 -11 12 -12 16 -2 3 7 24 12 54 12 37
0 49 4 49 15 0 12 -14 15 -65 15 -45 0 -65 -4 -65 -12z"/>
<path d="M4895 1920 l-50 -7 45 0 c25 -1 70 2 100 7 l55 7 -50 0 c-27 0 -72
-3 -100 -7z"/>
<path d="M5317 1911 c-59 -9 -39 -26 28 -23 75 3 105 10 105 22 0 11 -70 11
-133 1z"/>
<path d="M172 1858 c-18 -18 -15 -68 3 -68 9 0 14 8 12 22 -3 35 29 34 60 -1
15 -17 31 -31 35 -31 5 0 8 20 8 45 0 25 -4 45 -10 45 -5 0 -10 -9 -10 -21 l0
-20 -26 20 c-30 24 -54 27 -72 9z"/>
<path d="M5790 1853 c-25 -1 -133 -8 -240 -13 -241 -14 -609 -54 -687 -76 -7
-2 -13 -15 -13 -29 0 -24 2 -25 43 -19 67 9 106 24 121 45 11 17 29 21 106 26
76 5 92 4 85 -7 -13 -22 128 -6 162 18 24 17 58 21 253 32 124 7 250 16 280
20 l55 7 -60 0 c-33 0 -80 -2 -105 -4z"/>
<path d="M4985 1829 c-16 -10 -41 -20 -55 -20 -23 -2 -23 -2 -3 -6 22 -4 77
19 88 37 8 13 6 12 -30 -11z"/>
<path d="M5344 1753 c-17 -22 -29 -27 -89 -32 -67 -6 -68 -6 -50 -25 35 -34
120 -4 150 54 19 37 15 38 -11 3z"/>
<path d="M212 1743 c-10 -27 -11 -28 -17 -5 -8 24 -35 31 -35 8 0 -7 9 -25 21
-40 35 -45 109 -32 109 19 0 50 -62 63 -78 18z m53 -3 c10 -16 -16 -43 -28
-31 -11 11 -2 41 12 41 5 0 13 -5 16 -10z"/>
<path d="M4872 1678 c-7 -7 -12 -16 -12 -20 0 -9 22 -7 30 3 3 3 14 11 25 17
19 11 19 11 -5 12 -15 0 -31 -5 -38 -12z"/>
<path d="M212 1633 c-10 -27 -11 -28 -17 -5 -8 24 -35 31 -35 8 0 -7 11 -25
25 -40 40 -43 105 -32 105 19 0 50 -62 63 -78 18z m58 -18 c0 -16 -27 -27 -36
-14 -3 5 -3 16 0 24 6 17 36 9 36 -10z"/>
<path d="M160 1516 c0 -35 13 -46 51 -46 14 0 19 7 19 26 0 19 4 25 18 22 11
-3 16 -12 15 -26 -2 -14 3 -22 12 -22 20 0 20 53 1 70 -23 18 -61 8 -64 -17
-5 -32 -32 -30 -32 2 0 14 -4 25 -10 25 -5 0 -10 -15 -10 -34z"/>
<path d="M178 1453 c-22 -5 -24 -23 -3 -23 8 0 15 -4 15 -10 0 -5 -7 -7 -15
-4 -21 8 -19 -2 6 -27 16 -16 23 -18 29 -9 6 9 11 7 19 -6 9 -16 12 -16 20 -5
5 7 14 10 20 7 6 -4 11 -3 11 3 0 5 -8 15 -17 20 -17 10 -17 10 0 11 9 0 17 5
17 10 0 6 -7 10 -15 10 -8 0 -15 5 -15 11 0 6 -9 8 -20 4 -11 -4 -20 -2 -20 4
0 11 -3 12 -32 4z m52 -43 c0 -5 -2 -10 -4 -10 -3 0 -8 5 -11 10 -3 6 -1 10 4
10 6 0 11 -4 11 -10z"/>
<path d="M130 1285 c0 -12 18 -15 100 -15 82 0 100 3 100 15 0 12 -18 15 -100
15 -82 0 -100 -3 -100 -15z"/>
<path d="M190 1200 c0 -7 7 -22 17 -32 15 -17 14 -18 -25 -18 -31 0 -42 -4
-42 -15 0 -12 15 -15 75 -15 60 0 75 3 75 15 0 9 -9 15 -21 15 -21 0 -21 0 1
18 13 10 21 24 19 31 -3 9 -11 7 -29 -7 l-25 -20 -22 20 c-16 15 -23 17 -23 8z"/>
<path d="M190 1077 c0 -13 5 -28 12 -35 15 -15 61 -15 76 0 17 17 15 58 -3 58
-8 0 -12 -6 -9 -13 3 -8 -2 -20 -11 -27 -12 -10 -18 -10 -30 0 -8 7 -15 19
-15 26 0 8 -4 14 -10 14 -5 0 -10 -10 -10 -23z"/>
<path d="M202 998 c-15 -15 -15 -51 0 -66 7 -7 24 -12 38 -12 31 0 50 17 50
45 0 12 -5 26 -12 33 -15 15 -61 15 -76 0z m68 -37 c0 -13 -27 -21 -45 -15
-18 7 -19 16 -3 32 12 12 48 -1 48 -17z"/>
<path d="M190 900 c0 -5 -7 -10 -15 -10 -8 0 -15 -4 -15 -10 0 -18 35 -27 80
-21 37 5 46 10 48 29 2 12 -1 22 -7 22 -6 0 -11 -4 -11 -10 0 -5 -13 -10 -30
-10 -16 0 -30 5 -30 10 0 6 -4 10 -10 10 -5 0 -10 -4 -10 -10z"/>
<path d="M152 803 c2 -32 7 -39 27 -41 18 -3 32 5 53 30 28 33 32 30 28 -21
-3 -34 24 -22 28 13 7 58 -47 76 -76 26 -20 -35 -38 -34 -35 4 1 17 -3 26 -13
26 -11 0 -14 -9 -12 -37z"/>
<path d="M213 689 c-15 -5 -23 -17 -23 -32 0 -30 18 -47 50 -47 14 0 31 5 38
12 14 14 16 68 2 68 -5 0 -10 -11 -10 -24 0 -14 -4 -28 -10 -31 -6 -4 -10 6
-10 24 0 36 -7 42 -37 30z m17 -41 c0 -16 -3 -19 -11 -11 -6 6 -8 16 -5 22 11
17 16 13 16 -11z"/>
<path d="M8200 613 c0 -22 2 -25 10 -13 13 20 13 40 0 40 -5 0 -10 -12 -10
-27z"/>
<path d="M202 578 c-7 -7 -12 -20 -12 -30 0 -13 -8 -18 -25 -18 -16 0 -25 -6
-25 -15 0 -12 15 -15 75 -15 l75 0 0 29 c0 50 -56 81 -88 49z m68 -38 c0 -6
-13 -10 -30 -10 -32 0 -37 9 -18 28 12 12 48 -1 48 -18z"/>
<path d="M202 468 c-15 -15 -15 -51 0 -66 7 -7 24 -12 38 -12 31 0 50 17 50
45 0 28 -19 45 -50 45 -14 0 -31 -5 -38 -12z m68 -38 c0 -14 -41 -23 -53 -11
-17 17 11 43 34 30 10 -5 19 -14 19 -19z"/>
<path d="M140 355 c0 -9 9 -15 25 -15 17 0 25 -5 25 -18 0 -26 20 -42 51 -42
34 0 51 21 47 57 -3 28 -4 28 -75 31 -60 2 -73 0 -73 -13z m130 -24 c0 -5 -7
-14 -15 -21 -12 -10 -18 -10 -30 0 -23 19 -18 30 15 30 17 0 30 -4 30 -9z"/>
<path d="M8228 273 c7 -3 16 -2 19 1 4 3 -2 6 -13 5 -11 0 -14 -3 -6 -6z"/>
<path d="M213 247 c-82 -27 -85 -49 -8 -71 30 -9 61 -19 70 -22 9 -4 15 -1 15
9 0 8 -9 17 -20 20 -12 3 -20 14 -20 27 0 13 8 24 20 27 11 3 20 12 20 19 0
17 0 17 -77 -9z m17 -41 c0 -9 -7 -12 -20 -9 -11 3 -20 9 -20 14 0 5 9 9 20 9
11 0 20 -6 20 -14z"/>
</g>
</svg>
